<svg width="44" height="44" viewBox="0 0 44 44" fill="none" xmlns="http://www.w3.org/2000/svg">
<path d="M4.57778 31.8552V39.4222H12.1448V44H0V31.8552H4.57778ZM44 31.8552V44H31.8552V39.4222H39.4222V31.8552H44ZM12.1448 0V4.57778H4.57778V12.1448H0V0H12.1448ZM44 0V12.1448H39.4222V4.57778H31.8552V0H44Z" fill="black"/>
<path d="M9.9 33.2357C9.9 32.7632 10.138 32.4406 10.6139 32.2677L11.4809 32.043C11.7642 31.9508 11.9738 31.8298 12.1098 31.68C12.2458 31.5187 12.3138 31.3112 12.3138 31.0577V12.9596C12.3138 12.6945 12.2458 12.4871 12.1098 12.3373C11.9738 12.176 11.7642 12.0492 11.4809 11.957L10.6139 11.7323C10.138 11.5594 9.9 11.2368 9.9 10.7643C9.9 10.4877 9.98499 10.2745 10.155 10.1247C10.3363 9.97491 10.6139 9.9 10.9879 9.9H20.6771C22.7623 9.9 24.6605 10.2169 26.3717 10.8507C28.0829 11.473 29.5561 12.3603 30.7913 13.5127C32.0379 14.6651 32.9898 16.0364 33.6471 17.6267C34.3157 19.217 34.65 20.9801 34.65 22.9161C34.65 25.0941 34.1457 27.0244 33.1371 28.7069C32.1399 30.3893 30.712 31.7088 28.8535 32.6653C27.0063 33.6218 24.8078 34.1 22.258 34.1H10.9879C10.6139 34.1 10.3363 34.0251 10.155 33.8753C9.98499 33.714 9.9 33.5008 9.9 33.2357ZM21.6121 32.2331C22.8473 32.2331 23.9352 31.899 24.8758 31.2306C25.8277 30.5622 26.5757 29.5308 27.1196 28.1364C27.6636 26.7305 27.9355 24.9386 27.9355 22.7606C27.9355 21.032 27.7542 19.4878 27.3916 18.128C27.0289 16.7682 26.502 15.6158 25.8107 14.6709C25.1308 13.7259 24.3035 13.0057 23.3289 12.5101C22.3543 12.0146 21.2551 11.7669 20.0312 11.7669H18.8073V30.6256C18.8073 31.1787 18.9546 31.5878 19.2492 31.8529C19.5552 32.1064 19.9859 32.2331 20.5411 32.2331H21.6121Z" fill="black"/>
</svg>
