<?xml version="1.0" encoding="UTF-8" standalone="no"?>
<!DOCTYPE svg PUBLIC "-//W3C//DTD SVG 1.1//EN" "http://www.w3.org/Graphics/SVG/1.1/DTD/svg11.dtd">
<svg width="100%" height="100%" viewBox="0 0 249 90" version="1.1" xmlns="http://www.w3.org/2000/svg" xmlns:xlink="http://www.w3.org/1999/xlink" xml:space="preserve" xmlns:serif="http://www.serif.com/" style="fill-rule:evenodd;clip-rule:evenodd;stroke-linejoin:round;stroke-miterlimit:2;">
    <g transform="matrix(1,0,0,1,63.447,71.107)">
        <path d="M0,-52.6C-3.844,-52.6 -6.961,-55.717 -6.961,-59.561C-6.961,-63.406 -3.844,-66.523 0,-66.523C3.844,-66.523 6.961,-63.406 6.961,-59.561C6.961,-55.717 3.844,-52.6 0,-52.6M-24.265,-56.279C-20.42,-56.279 -17.304,-59.396 -17.304,-63.241C-17.304,-67.085 -20.42,-70.202 -24.265,-70.202C-28.109,-70.202 -31.226,-67.085 -31.226,-63.241C-31.226,-59.396 -28.109,-56.279 -24.265,-56.279M-51.712,-38.677C-47.867,-38.677 -44.751,-41.794 -44.751,-45.639C-44.751,-49.483 -47.867,-52.6 -51.712,-52.6C-55.556,-52.6 -58.673,-49.483 -58.673,-45.639C-58.673,-41.794 -55.556,-38.677 -51.712,-38.677M-56.485,-7.75C-52.641,-7.75 -49.524,-10.867 -49.524,-14.711C-49.524,-18.556 -52.641,-21.672 -56.485,-21.672C-60.33,-21.672 -63.447,-18.556 -63.447,-14.711C-63.447,-10.867 -60.33,-7.75 -56.485,-7.75M-20.884,18.504C-17.039,18.504 -13.922,15.387 -13.922,11.543C-13.922,7.698 -17.039,4.581 -20.884,4.581C-24.728,4.581 -27.845,7.698 -27.845,11.543C-27.845,15.387 -24.728,18.504 -20.884,18.504M175.263,18.309L178.797,18.309L178.797,-2.55L185.198,-2.55L185.198,-5.787L168.866,-5.787L168.866,-2.55L175.263,-2.55L175.263,18.309ZM160.999,11.577C160.014,13.775 158.528,14.873 156.539,14.873C155.705,14.873 154.988,14.691 154.39,14.326C153.78,14.017 153.289,13.614 152.914,13.117C152.454,12.599 152.15,11.92 152,11.08C151.829,10.241 151.743,8.634 151.743,6.261C151.743,3.887 151.829,2.27 152,1.408C152.15,0.591 152.454,-0.077 152.913,-0.596C153.287,-1.093 153.779,-1.507 154.389,-1.838C154.987,-2.158 155.703,-2.329 156.537,-2.352C157.67,-2.329 158.632,-1.993 159.423,-1.341C160.182,-0.656 160.706,0.171 160.994,1.143L164.746,1.143C164.373,-0.87 163.476,-2.559 162.057,-3.923C160.637,-5.276 158.802,-5.964 156.55,-5.986C154.714,-5.964 153.183,-5.512 151.956,-4.631C150.707,-3.76 149.8,-2.769 149.234,-1.656C148.882,-1.072 148.621,-0.306 148.45,0.641C148.29,1.589 148.21,3.462 148.21,6.261C148.21,9.015 148.289,10.878 148.45,11.847C148.535,12.365 148.642,12.794 148.77,13.136C148.908,13.466 149.063,13.813 149.234,14.177C149.799,15.29 150.706,16.271 151.954,17.119C153.181,18 154.711,18.463 156.547,18.507C158.575,18.507 160.331,17.913 161.815,16.725C163.257,15.526 164.233,13.81 164.746,11.577L160.999,11.577ZM127.989,18.309L142.899,18.309L142.899,14.873L131.522,14.873L131.522,7.78L141.233,7.78L141.233,4.543L131.522,4.543L131.522,-2.352L142.899,-2.352L142.899,-5.787L127.989,-5.787L127.989,18.309ZM106.998,15.383C108.375,17.4 110.428,18.441 113.159,18.507C115.119,18.485 116.84,17.796 118.321,16.441C119.813,15.119 120.58,13.246 120.623,10.822L120.623,-5.787L117.089,-5.787L117.089,10.473C117.089,11.289 116.967,11.967 116.722,12.508C116.487,13.07 116.162,13.522 115.747,13.864C114.895,14.558 114,14.895 113.063,14.873C112.358,14.873 111.744,14.702 111.221,14.36C110.697,14.073 110.27,13.703 109.94,13.25L106.998,15.383ZM89.164,6.261C89.164,3.887 89.249,2.27 89.42,1.408C89.57,0.591 89.875,-0.077 90.335,-0.596C90.708,-1.093 91.2,-1.507 91.809,-1.838C92.408,-2.158 93.124,-2.329 93.958,-2.352C94.802,-2.329 95.535,-2.158 96.155,-1.838C96.743,-1.507 97.213,-1.093 97.566,-0.596C98.026,-0.077 98.341,0.591 98.512,1.408C98.672,2.27 98.752,3.887 98.752,6.261C98.752,8.634 98.672,10.241 98.512,11.08C98.341,11.92 98.026,12.599 97.566,13.117C97.213,13.614 96.743,14.017 96.155,14.326C95.535,14.691 94.802,14.873 93.958,14.873C93.124,14.873 92.408,14.691 91.809,14.326C91.2,14.017 90.708,13.614 90.335,13.117C89.875,12.599 89.57,11.92 89.42,11.08C89.249,10.241 89.164,8.634 89.164,6.261M85.63,6.261C85.63,9.015 85.71,10.878 85.87,11.847C85.955,12.365 86.062,12.794 86.19,13.136C86.329,13.466 86.483,13.813 86.654,14.177C87.219,15.29 88.126,16.271 89.374,17.119C90.601,18 92.132,18.463 93.966,18.507C95.822,18.463 97.369,18 98.606,17.119C99.833,16.271 100.718,15.29 101.262,14.177C101.657,13.593 101.929,12.817 102.078,11.847C102.217,10.878 102.287,9.015 102.287,6.261C102.287,3.462 102.217,1.589 102.078,0.641C101.929,-0.306 101.657,-1.072 101.263,-1.656C100.719,-2.769 99.833,-3.76 98.607,-4.631C97.369,-5.512 95.823,-5.964 93.967,-5.986C92.132,-5.964 90.601,-5.514 89.374,-4.636C88.126,-3.769 87.219,-2.781 86.654,-1.672C86.302,-1.087 86.041,-0.32 85.87,0.63C85.71,1.579 85.63,3.457 85.63,6.261M63.51,18.309L67.044,18.309L67.044,8.011L71.57,8.011L76.4,18.309L80.598,18.309L75.197,7.616C78.158,6.437 79.66,4.211 79.703,0.939C79.639,-1.286 78.868,-3 77.389,-4.201C76.161,-5.258 74.574,-5.787 72.629,-5.787L63.51,-5.787L63.51,18.309ZM67.044,-2.55L72.597,-2.55C73.731,-2.55 74.597,-2.301 75.197,-1.804C75.956,-1.24 76.347,-0.329 76.368,0.93C76.368,1.979 76.042,2.863 75.389,3.582C74.726,4.355 73.731,4.753 72.404,4.775L67.044,4.775L67.044,-2.55ZM41.067,18.309L44.6,18.309L44.6,8.903L49.985,8.903C52.389,8.859 54.216,8.066 55.466,6.524C56.684,5.058 57.293,3.434 57.293,1.649C57.293,0.327 57.053,-0.819 56.573,-1.788C56.115,-2.791 55.518,-3.562 54.783,-4.102C53.907,-4.818 53.042,-5.292 52.187,-5.523C51.332,-5.699 50.446,-5.787 49.527,-5.787L41.067,-5.787L41.067,18.309ZM44.6,-2.352L49.718,-2.352C50.679,-2.373 51.524,-2.146 52.252,-1.671C52.732,-1.383 53.107,-0.99 53.374,-0.492C53.631,0.061 53.76,0.742 53.76,1.551C53.76,2.524 53.444,3.41 52.813,4.207C52.15,5.026 51.161,5.447 49.846,5.469L44.6,5.469L44.6,-2.352ZM132.059,-26.399C132.059,-28.773 132.144,-30.391 132.316,-31.252C132.465,-32.069 132.77,-32.737 133.23,-33.256C133.604,-33.752 134.095,-34.166 134.705,-34.498C135.303,-34.818 136.02,-34.989 136.853,-35.011C137.698,-34.989 138.43,-34.818 139.05,-34.498C139.638,-34.166 140.109,-33.752 140.461,-33.256C140.921,-32.737 141.236,-32.069 141.407,-31.252C141.568,-30.391 141.648,-28.773 141.648,-26.399C141.648,-24.025 141.568,-22.419 141.407,-21.579C141.236,-20.741 140.921,-20.062 140.461,-19.542C140.109,-19.045 139.638,-18.642 139.05,-18.333C138.43,-17.969 137.698,-17.787 136.853,-17.787C136.02,-17.787 135.303,-17.969 134.705,-18.333C134.095,-18.642 133.604,-19.045 133.23,-19.542C132.77,-20.061 132.465,-20.741 132.316,-21.579C132.144,-22.419 132.059,-24.025 132.059,-26.399M128.525,-26.399C128.525,-23.645 128.605,-21.783 128.765,-20.813C128.851,-20.295 128.957,-19.865 129.085,-19.524C129.224,-19.193 129.379,-18.846 129.549,-18.483C130.115,-17.37 131.021,-16.389 132.27,-15.541C133.496,-14.659 135.026,-14.197 136.861,-14.153C138.718,-14.197 140.264,-14.659 141.502,-15.541C142.728,-16.389 143.614,-17.37 144.158,-18.483C144.552,-19.067 144.824,-19.844 144.973,-20.813C145.112,-21.783 145.181,-23.645 145.181,-26.399C145.181,-29.197 145.112,-31.071 144.973,-32.018C144.825,-32.966 144.553,-33.731 144.158,-34.316C143.614,-35.428 142.729,-36.42 141.502,-37.291C140.264,-38.172 138.718,-38.623 136.862,-38.646C135.027,-38.623 133.496,-38.173 132.27,-37.296C131.022,-36.428 130.115,-35.441 129.55,-34.332C129.197,-33.747 128.936,-32.979 128.765,-32.03C128.605,-31.08 128.525,-29.204 128.525,-26.399M106.425,-14.351L109.959,-14.351L109.959,-21.689L114.06,-26.134L120.421,-14.351L124.619,-14.351L116.355,-28.944L123.834,-38.448L119.638,-38.448L110.029,-26.035L109.959,-26.035L109.959,-38.448L106.425,-38.448L106.425,-14.351ZM96.82,-21.083C95.837,-18.886 94.35,-17.787 92.362,-17.787C91.527,-17.787 90.811,-17.969 90.212,-18.333C89.603,-18.642 89.111,-19.045 88.736,-19.542C88.277,-20.062 87.971,-20.741 87.822,-21.579C87.651,-22.419 87.566,-24.025 87.566,-26.399C87.566,-28.773 87.651,-30.391 87.822,-31.252C87.971,-32.069 88.276,-32.737 88.736,-33.256C89.11,-33.752 89.601,-34.166 90.211,-34.498C90.809,-34.818 91.526,-34.989 92.359,-35.011C93.492,-34.989 94.454,-34.652 95.245,-34.001C96.004,-33.317 96.528,-32.488 96.816,-31.517L100.568,-31.517C100.194,-33.53 99.298,-35.219 97.879,-36.583C96.459,-37.936 94.624,-38.623 92.372,-38.646C90.536,-38.623 89.005,-38.172 87.778,-37.291C86.529,-36.42 85.622,-35.428 85.056,-34.316C84.704,-33.731 84.442,-32.966 84.272,-32.018C84.112,-31.071 84.032,-29.197 84.032,-26.399C84.032,-23.645 84.111,-21.783 84.272,-20.813C84.357,-20.295 84.464,-19.865 84.592,-19.524C84.73,-19.193 84.885,-18.846 85.056,-18.483C85.621,-17.37 86.528,-16.389 87.776,-15.541C89.003,-14.659 90.533,-14.197 92.368,-14.153C94.397,-14.153 96.153,-14.746 97.637,-15.935C99.078,-17.134 100.056,-18.85 100.568,-21.083L96.82,-21.083ZM63.811,-14.351L78.721,-14.351L78.721,-17.787L67.345,-17.787L67.345,-24.88L77.056,-24.88L77.056,-28.116L67.345,-28.116L67.345,-35.011L78.721,-35.011L78.721,-38.448L63.811,-38.448L63.811,-14.351ZM48.633,-24.169L53.396,-24.169L53.396,-22.909C53.375,-21.395 52.915,-20.174 52.017,-19.246C51.119,-18.273 49.981,-17.787 48.601,-17.787C47.768,-17.787 47.051,-17.969 46.453,-18.333C45.843,-18.642 45.352,-19.045 44.978,-19.542C44.518,-20.062 44.213,-20.741 44.064,-21.579C43.892,-22.419 43.807,-24.025 43.807,-26.399C43.807,-28.773 43.892,-30.391 44.064,-31.252C44.213,-32.069 44.517,-32.737 44.977,-33.256C45.351,-33.752 45.842,-34.166 46.451,-34.498C47.049,-34.818 47.765,-34.989 48.598,-35.011C49.73,-34.989 50.691,-34.651 51.482,-33.998C52.24,-33.312 52.764,-32.481 53.052,-31.507L56.802,-31.507C56.428,-33.523 55.532,-35.214 54.114,-36.58C52.695,-37.935 50.86,-38.623 48.609,-38.646C46.775,-38.623 45.244,-38.172 44.018,-37.291C42.769,-36.42 41.863,-35.428 41.297,-34.316C40.945,-33.731 40.684,-32.966 40.513,-32.018C40.353,-31.071 40.273,-29.197 40.273,-26.399C40.273,-23.645 40.353,-21.783 40.513,-20.813C40.599,-20.295 40.705,-19.865 40.833,-19.524C40.972,-19.193 41.127,-18.846 41.297,-18.483C41.863,-17.37 42.769,-16.389 44.018,-15.541C45.244,-14.659 46.775,-14.197 48.609,-14.153C50.988,-14.197 52.962,-15.027 54.529,-16.645C56.087,-18.273 56.887,-20.292 56.929,-22.702L56.929,-27.604L48.633,-27.604L48.633,-24.169ZM54.968,-71.107L54.968,-67.869L48.567,-67.869L48.567,-47.011L45.033,-47.011L45.033,-67.869L38.636,-67.869L38.636,-71.107L54.968,-71.107ZM77.129,-71.107L77.129,-47.011L73.595,-47.011L73.595,-57.54L64.337,-57.54L64.337,-47.011L60.803,-47.011L60.803,-71.107L64.337,-71.107L64.337,-60.776L73.595,-60.776L73.595,-71.107L77.129,-71.107ZM99.665,-71.107L99.665,-67.671L88.288,-67.671L88.288,-60.776L98,-60.776L98,-57.54L88.288,-57.54L88.288,-50.447L99.665,-50.447L99.665,-47.011L84.755,-47.011L84.755,-71.107L99.665,-71.107ZM24.861,-71.107L23.143,-71.107L23.143,18.33L24.861,18.33L24.861,-71.107Z" style="fill:currentColor;fill-rule:nonzero;"/>
    </g>
</svg>
