<?xml version="1.0" encoding="UTF-8"?> <svg xmlns="http://www.w3.org/2000/svg" width="96" height="96" viewBox="0 0 96 96" fill="none"><g clip-path="url(#clip0_757_148698)"><path d="M95.9956 37.7336H91.6298V42.0997H95.9956V37.7336Z" fill="#213149"></path><path d="M95.9956 32.3423H91.6298V36.7084H95.9956V32.3423Z" fill="#213149"></path><path d="M95.9956 43.1235H91.6298V47.4896H95.9956V43.1235Z" fill="#213149"></path><path d="M95.9956 59.2932H91.6298V63.6593H95.9956V59.2932Z" fill="#213149"></path><path d="M95.9956 53.9048H91.6298V58.2709H95.9956V53.9048Z" fill="#213149"></path><path d="M4.3658 32.3423H0V36.7084H4.3658V32.3423Z" fill="#213149"></path><path d="M9.75533 32.3423H5.38953V36.7084H9.75533V32.3423Z" fill="#213149"></path><path d="M9.75533 37.7322H5.38953V42.0982H9.75533V37.7322Z" fill="#213149"></path><path d="M4.3658 43.1235H0V47.4896H4.3658V43.1235Z" fill="#213149"></path><path d="M15.1464 37.7322H10.7806V42.0982H15.1464V37.7322Z" fill="#213149"></path><path d="M20.5359 37.7322H16.1701V42.0982H20.5359V37.7322Z" fill="#213149"></path><path d="M20.5359 32.3423H16.1701V36.7084H20.5359V32.3423Z" fill="#213149"></path><path d="M25.9255 37.7322H21.5597V42.0982H25.9255V37.7322Z" fill="#213149"></path><path d="M25.9255 43.1235H21.5597V47.4896H25.9255V43.1235Z" fill="#213149"></path><path d="M31.315 37.7322H26.9492V42.0982H31.315V37.7322Z" fill="#213149"></path><path d="M31.315 32.3423H26.9492V36.7084H31.315V32.3423Z" fill="#213149"></path><path d="M31.315 43.1235H26.9492V47.4896H31.315V43.1235Z" fill="#213149"></path><path d="M31.315 48.5149H26.9492V52.881H31.315V48.5149Z" fill="#213149"></path><path d="M15.1464 43.1235H10.7806V47.4896H15.1464V43.1235Z" fill="#213149"></path><path d="M15.1464 48.5149H10.7806V52.881H15.1464V48.5149Z" fill="#213149"></path><path d="M20.5359 48.5149H16.1701V52.881H20.5359V48.5149Z" fill="#213149"></path><path d="M9.75533 48.5149H5.38953V52.881H9.75533V48.5149Z" fill="#213149"></path><path d="M4.3658 48.5149H0V52.881H4.3658V48.5149Z" fill="#213149"></path><path d="M4.3658 53.9033H0V58.2694H4.3658V53.9033Z" fill="#213149"></path><path d="M9.75533 53.9033H5.38953V58.2694H9.75533V53.9033Z" fill="#213149"></path><path d="M20.5359 53.9033H16.1701V58.2694H20.5359V53.9033Z" fill="#213149"></path><path d="M25.9255 53.9033H21.5597V58.2694H25.9255V53.9033Z" fill="#213149"></path><path d="M31.315 59.2932H26.9492V63.6593H31.315V59.2932Z" fill="#213149"></path><path d="M25.9255 59.2932H21.5597V63.6593H25.9255V59.2932Z" fill="#213149"></path><path d="M20.5359 59.2932H16.1701V63.6593H20.5359V59.2932Z" fill="#213149"></path><path d="M15.1464 59.2932H10.7806V63.6593H15.1464V59.2932Z" fill="#213149"></path><path d="M9.75533 59.2932H5.38953V63.6593H9.75533V59.2932Z" fill="#213149"></path><path d="M17.8382 64.686H16.1686V66.3557H17.8382V64.686Z" fill="#213149"></path><path d="M20.5345 64.686H18.8649V66.3557H20.5345V64.686Z" fill="#213149"></path><path d="M17.8382 67.3795H16.1686V69.0492H17.8382V67.3795Z" fill="#213149"></path><path d="M17.8382 70.0759H16.1686V71.7456H17.8382V70.0759Z" fill="#213149"></path><path d="M15.1449 64.686H13.4753V66.3557H15.1449V64.686Z" fill="#213149"></path><path d="M15.1449 67.3795H13.4753V69.0492H15.1449V67.3795Z" fill="#213149"></path><path d="M15.1449 70.0759H13.4753V71.7456H15.1449V70.0759Z" fill="#213149"></path><path d="M9.75389 64.686H8.08435V66.3557H9.75389V64.686Z" fill="#213149"></path><path d="M9.75389 67.3795H8.08435V69.0492H9.75389V67.3795Z" fill="#213149"></path><path d="M9.75389 70.0759H8.08435V71.7456H9.75389V70.0759Z" fill="#213149"></path><path d="M12.4487 64.686H10.7791V66.3557H12.4487V64.686Z" fill="#213149"></path><path d="M12.4487 67.3795H10.7791V69.0492H12.4487V67.3795Z" fill="#213149"></path><path d="M4.3643 64.686H2.69476V66.3557H4.3643V64.686Z" fill="#213149"></path><path d="M4.3643 67.3795H2.69476V69.0492H4.3643V67.3795Z" fill="#213149"></path><path d="M4.3643 70.0759H2.69476V71.7456H4.3643V70.0759Z" fill="#213149"></path><path d="M1.66954 64.686H0V66.3557H1.66954V64.686Z" fill="#213149"></path><path d="M1.66954 67.3795H0V69.0492H1.66954V67.3795Z" fill="#213149"></path><path d="M1.66954 70.0759H0V71.7456H1.66954V70.0759Z" fill="#213149"></path><path d="M4.3643 72.7693H2.69476V74.4389H4.3643V72.7693Z" fill="#213149"></path><path d="M4.3643 75.4658H2.69476V77.1355H4.3643V75.4658Z" fill="#213149"></path><path d="M4.3643 78.1592H2.69476V79.8288H4.3643V78.1592Z" fill="#213149"></path><path d="M1.66954 75.4658H0V77.1355H1.66954V75.4658Z" fill="#213149"></path><path d="M1.66954 78.1592H0V79.8288H1.66954V78.1592Z" fill="#213149"></path><path d="M1.66954 80.8527H0V82.5223H1.66954V80.8527Z" fill="#213149"></path><path d="M7.05907 75.4658H5.38953V77.1355H7.05907V75.4658Z" fill="#213149"></path><path d="M7.05907 78.1592H5.38953V79.8288H7.05907V78.1592Z" fill="#213149"></path><path d="M7.05907 80.8527H5.38953V82.5223H7.05907V80.8527Z" fill="#213149"></path><path d="M7.05907 83.5491H5.38953V85.2187H7.05907V83.5491Z" fill="#213149"></path><path d="M15.1449 72.7693H13.4753V74.4389H15.1449V72.7693Z" fill="#213149"></path><path d="M15.1449 75.4658H13.4753V77.1355H15.1449V75.4658Z" fill="#213149"></path><path d="M15.1449 78.1592H13.4753V79.8288H15.1449V78.1592Z" fill="#213149"></path><path d="M7.05907 64.686H5.38953V66.3557H7.05907V64.686Z" fill="#213149"></path><path d="M7.05907 70.0759H5.38953V71.7456H7.05907V70.0759Z" fill="#213149"></path><path d="M12.4487 72.7693H10.7791V74.4389H12.4487V72.7693Z" fill="#213149"></path><path d="M12.4487 75.4658H10.7791V77.1355H12.4487V75.4658Z" fill="#213149"></path><path d="M12.4487 78.1592H10.7791V79.8288H12.4487V78.1592Z" fill="#213149"></path><path d="M12.4487 80.8527H10.7791V82.5223H12.4487V80.8527Z" fill="#213149"></path><path d="M12.4487 83.5491H10.7791V85.2187H12.4487V83.5491Z" fill="#213149"></path><path d="M12.4487 86.2455H10.7791V87.9151H12.4487V86.2455Z" fill="#213149"></path><path d="M9.75389 72.7693H8.08435V74.4389H9.75389V72.7693Z" fill="#213149"></path><path d="M9.75389 75.4658H8.08435V77.1355H9.75389V75.4658Z" fill="#213149"></path><path d="M9.75389 80.8527H8.08435V82.5223H9.75389V80.8527Z" fill="#213149"></path><path d="M9.75389 83.5491H8.08435V85.2187H9.75389V83.5491Z" fill="#213149"></path><path d="M12.4487 88.9479H10.7791V90.6175H12.4487V88.9479Z" fill="#213149"></path><path d="M12.4487 91.6399H10.7791V93.3095H12.4487V91.6399Z" fill="#213149"></path><path d="M12.4487 94.3303H10.7791V96H12.4487V94.3303Z" fill="#213149"></path><path d="M7.05907 86.2455H5.38953V87.9151H7.05907V86.2455Z" fill="#213149"></path><path d="M7.05907 88.9479H5.38953V90.6175H7.05907V88.9479Z" fill="#213149"></path><path d="M7.05907 91.6399H5.38953V93.3095H7.05907V91.6399Z" fill="#213149"></path><path d="M9.75389 88.9479H8.08435V90.6175H9.75389V88.9479Z" fill="#213149"></path><path d="M7.05907 94.3303H5.38953V96H7.05907V94.3303Z" fill="#213149"></path><path d="M4.3643 83.5491H2.69476V85.2187H4.3643V83.5491Z" fill="#213149"></path><path d="M4.3643 86.2455H2.69476V87.9151H4.3643V86.2455Z" fill="#213149"></path><path d="M4.3643 88.9479H2.69476V90.6175H4.3643V88.9479Z" fill="#213149"></path><path d="M4.3643 91.6399H2.69476V93.3095H4.3643V91.6399Z" fill="#213149"></path><path d="M4.3643 94.3303H2.69476V96H4.3643V94.3303Z" fill="#213149"></path><path d="M1.66954 83.5491H0V85.2187H1.66954V83.5491Z" fill="#213149"></path><path d="M1.66954 86.2455H0V87.9151H1.66954V86.2455Z" fill="#213149"></path><path d="M1.66954 91.6399H0V93.3095H1.66954V91.6399Z" fill="#213149"></path><path d="M1.66954 94.3303H0V96H1.66954V94.3303Z" fill="#213149"></path><path d="M15.1449 80.8527H13.4753V82.5223H15.1449V80.8527Z" fill="#213149"></path><path d="M15.1449 83.5491H13.4753V85.2187H15.1449V83.5491Z" fill="#213149"></path><path d="M15.1449 88.9479H13.4753V90.6175H15.1449V88.9479Z" fill="#213149"></path><path d="M15.1449 91.6399H13.4753V93.3095H15.1449V91.6399Z" fill="#213149"></path><path d="M15.1449 94.3303H13.4753V96H15.1449V94.3303Z" fill="#213149"></path><path d="M17.8382 75.4658H16.1686V77.1355H17.8382V75.4658Z" fill="#213149"></path><path d="M17.8382 80.8527H16.1686V82.5223H17.8382V80.8527Z" fill="#213149"></path><path d="M17.8382 83.5491H16.1686V85.2187H17.8382V83.5491Z" fill="#213149"></path><path d="M17.8382 86.2455H16.1686V87.9151H17.8382V86.2455Z" fill="#213149"></path><path d="M17.8382 88.9479H16.1686V90.6175H17.8382V88.9479Z" fill="#213149"></path><path d="M17.8382 91.6399H16.1686V93.3095H17.8382V91.6399Z" fill="#213149"></path><path d="M20.5345 75.4658H18.8649V77.1355H20.5345V75.4658Z" fill="#213149"></path><path d="M20.5345 78.1592H18.8649V79.8288H20.5345V78.1592Z" fill="#213149"></path><path d="M20.5345 80.8527H18.8649V82.5223H20.5345V80.8527Z" fill="#213149"></path><path d="M20.5345 83.5491H18.8649V85.2187H20.5345V83.5491Z" fill="#213149"></path><path d="M20.5345 86.2455H18.8649V87.9151H20.5345V86.2455Z" fill="#213149"></path><path d="M20.5345 88.9479H18.8649V90.6175H20.5345V88.9479Z" fill="#213149"></path><path d="M20.5345 91.6399H18.8649V93.3095H20.5345V91.6399Z" fill="#213149"></path><path d="M20.5345 94.3303H18.8649V96H20.5345V94.3303Z" fill="#213149"></path><path d="M20.5345 72.7693H18.8649V74.4389H20.5345V72.7693Z" fill="#213149"></path><path d="M23.2292 64.686H21.5597V66.3557H23.2292V64.686Z" fill="#213149"></path><path d="M23.2292 67.3795H21.5597V69.0492H23.2292V67.3795Z" fill="#213149"></path><path d="M23.2292 70.0759H21.5597V71.7456H23.2292V70.0759Z" fill="#213149"></path><path d="M23.2292 72.7693H21.5597V74.4389H23.2292V72.7693Z" fill="#213149"></path><path d="M23.2292 75.4658H21.5597V77.1355H23.2292V75.4658Z" fill="#213149"></path><path d="M23.2292 78.1592H21.5597V79.8288H23.2292V78.1592Z" fill="#213149"></path><path d="M23.2292 80.8527H21.5597V82.5223H23.2292V80.8527Z" fill="#213149"></path><path d="M23.2292 86.2455H21.5597V87.9151H23.2292V86.2455Z" fill="#213149"></path><path d="M23.2292 88.9479H21.5597V90.6175H23.2292V88.9479Z" fill="#213149"></path><path d="M23.2292 91.6399H21.5597V93.3095H23.2292V91.6399Z" fill="#213149"></path><path d="M23.2292 94.3303H21.5597V96H23.2292V94.3303Z" fill="#213149"></path><path d="M25.9255 70.0759H24.2559V71.7456H25.9255V70.0759Z" fill="#213149"></path><path d="M25.9255 72.7693H24.2559V74.4389H25.9255V72.7693Z" fill="#213149"></path><path d="M25.9255 75.4658H24.2559V77.1355H25.9255V75.4658Z" fill="#213149"></path><path d="M25.9255 78.1592H24.2559V79.8288H25.9255V78.1592Z" fill="#213149"></path><path d="M25.9255 80.8527H24.2559V82.5223H25.9255V80.8527Z" fill="#213149"></path><path d="M25.9255 83.5491H24.2559V85.2187H25.9255V83.5491Z" fill="#213149"></path><path d="M25.9255 86.2455H24.2559V87.9151H25.9255V86.2455Z" fill="#213149"></path><path d="M25.9255 88.9479H24.2559V90.6175H25.9255V88.9479Z" fill="#213149"></path><path d="M25.9255 67.3795H24.2559V69.0492H25.9255V67.3795Z" fill="#213149"></path><path d="M25.9255 91.6399H24.2559V93.3095H25.9255V91.6399Z" fill="#213149"></path><path d="M28.6188 80.8527H26.9492V82.5223H28.6188V80.8527Z" fill="#213149"></path><path d="M28.6188 83.5491H26.9492V85.2187H28.6188V83.5491Z" fill="#213149"></path><path d="M28.6188 86.2455H26.9492V87.9151H28.6188V86.2455Z" fill="#213149"></path><path d="M28.6188 88.9479H26.9492V90.6175H28.6188V88.9479Z" fill="#213149"></path><path d="M28.6188 91.6399H26.9492V93.3095H28.6188V91.6399Z" fill="#213149"></path><path d="M28.6188 94.3303H26.9492V96H28.6188V94.3303Z" fill="#213149"></path><path d="M28.6188 67.3795H26.9492V69.0492H28.6188V67.3795Z" fill="#213149"></path><path d="M28.6188 70.0759H26.9492V71.7456H28.6188V70.0759Z" fill="#213149"></path><path d="M31.315 70.0759H29.6455V71.7456H31.315V70.0759Z" fill="#213149"></path><path d="M31.315 67.3795H29.6455V69.0492H31.315V67.3795Z" fill="#213149"></path><path d="M28.6188 64.686H26.9492V66.3557H28.6188V64.686Z" fill="#213149"></path><path d="M31.315 64.686H29.6455V66.3557H31.315V64.686Z" fill="#213149"></path><path d="M28.6188 75.4658H26.9492V77.1355H28.6188V75.4658Z" fill="#213149"></path><path d="M31.315 75.4658H29.6455V77.1355H31.315V75.4658Z" fill="#213149"></path><path d="M31.315 72.7693H29.6455V74.4389H31.315V72.7693Z" fill="#213149"></path><path d="M31.315 83.5491H29.6455V85.2187H31.315V83.5491Z" fill="#213149"></path><path d="M31.315 80.8527H29.6455V82.5223H31.315V80.8527Z" fill="#213149"></path><path d="M31.315 88.9479H29.6455V90.6175H31.315V88.9479Z" fill="#213149"></path><path d="M31.315 91.6399H29.6455V93.3095H31.315V91.6399Z" fill="#213149"></path><path d="M31.315 94.3303H29.6455V96H31.315V94.3303Z" fill="#213149"></path><path d="M36.7061 64.683H32.3403V69.0491H36.7061V64.683Z" fill="#213149"></path><path d="M42.0956 64.683H37.7298V69.0491H42.0956V64.683Z" fill="#213149"></path><path d="M42.0956 70.0729H37.7298V74.4389H42.0956V70.0729Z" fill="#213149"></path><path d="M36.7061 75.4642H32.3403V79.8303H36.7061V75.4642Z" fill="#213149"></path><path d="M47.4851 64.683H43.1193V69.0491H47.4851V64.683Z" fill="#213149"></path><path d="M52.8747 70.0729H48.5089V74.4389H52.8747V70.0729Z" fill="#213149"></path><path d="M52.8747 64.683H48.5089V69.0491H52.8747V64.683Z" fill="#213149"></path><path d="M58.2658 70.0729H53.9V74.4389H58.2658V70.0729Z" fill="#213149"></path><path d="M58.2658 75.4642H53.9V79.8303H58.2658V75.4642Z" fill="#213149"></path><path d="M63.6553 70.0729H59.2895V74.4389H63.6553V70.0729Z" fill="#213149"></path><path d="M58.2658 64.683H53.9V69.0491H58.2658V64.683Z" fill="#213149"></path><path d="M52.8747 75.4642H48.5089V79.8303H52.8747V75.4642Z" fill="#213149"></path><path d="M63.6553 80.8557H59.2895V85.2218H63.6553V80.8557Z" fill="#213149"></path><path d="M47.4851 75.4642H43.1193V79.8303H47.4851V75.4642Z" fill="#213149"></path><path d="M47.4851 80.8557H43.1193V85.2218H47.4851V80.8557Z" fill="#213149"></path><path d="M52.8747 80.8557H48.5089V85.2218H52.8747V80.8557Z" fill="#213149"></path><path d="M42.0956 80.8557H37.7298V85.2218H42.0956V80.8557Z" fill="#213149"></path><path d="M36.7061 86.244H32.3403V90.6101H36.7061V86.244Z" fill="#213149"></path><path d="M47.4851 86.244H43.1193V90.6101H47.4851V86.244Z" fill="#213149"></path><path d="M63.6553 86.244H59.2895V90.6101H63.6553V86.244Z" fill="#213149"></path><path d="M58.2658 86.244H53.9V90.6101H58.2658V86.244Z" fill="#213149"></path><path d="M63.6553 91.6339H59.2895V96H63.6553V91.6339Z" fill="#213149"></path><path d="M58.2658 91.6339H53.9V96H58.2658V91.6339Z" fill="#213149"></path><path d="M52.8747 91.6339H48.5089V96H52.8747V91.6339Z" fill="#213149"></path><path d="M47.4851 91.6339H43.1193V96H47.4851V91.6339Z" fill="#213149"></path><path d="M42.0956 91.6339H37.7298V96H42.0956V91.6339Z" fill="#213149"></path><path d="M36.7061 70.0729H32.3403V74.4389H36.7061V70.0729Z" fill="#213149"></path><path d="M42.0956 75.4642H37.7298V79.8303H42.0956V75.4642Z" fill="#213149"></path><path d="M36.7061 91.6339H32.3403V96H36.7061V91.6339Z" fill="#213149"></path><path d="M58.2658 80.8557H53.9V85.2218H58.2658V80.8557Z" fill="#213149"></path><path d="M36.7061 0H32.3403V4.36607H36.7061V0Z" fill="#213149"></path><path d="M42.0986 0H37.7328V4.36607H42.0986V0Z" fill="#213149"></path><path d="M47.4851 5.38989H43.1193V9.75596H47.4851V5.38989Z" fill="#213149"></path><path d="M36.7061 10.7812H32.3403V15.1473H36.7061V10.7812Z" fill="#213149"></path><path d="M47.4851 0H43.1193V4.36607H47.4851V0Z" fill="#213149"></path><path d="M52.8762 5.38989H48.5104V9.75596H52.8762V5.38989Z" fill="#213149"></path><path d="M52.8762 0H48.5104V4.36607H52.8762V0Z" fill="#213149"></path><path d="M58.2658 5.38989H53.9V9.75596H58.2658V5.38989Z" fill="#213149"></path><path d="M63.6568 10.7812H59.291V15.1473H63.6568V10.7812Z" fill="#213149"></path><path d="M63.6568 0H59.291V4.36607H63.6568V0Z" fill="#213149"></path><path d="M52.8762 10.7812H48.5104V15.1473H52.8762V10.7812Z" fill="#213149"></path><path d="M63.6568 16.1726H59.291V20.5387H63.6568V16.1726Z" fill="#213149"></path><path d="M47.4851 10.7812H43.1193V15.1473H47.4851V10.7812Z" fill="#213149"></path><path d="M47.4851 16.1726H43.1193V20.5387H47.4851V16.1726Z" fill="#213149"></path><path d="M36.7061 16.1726H32.3403V20.5387H36.7061V16.1726Z" fill="#213149"></path><path d="M36.7061 21.561H32.3403V25.9271H36.7061V21.561Z" fill="#213149"></path><path d="M47.4851 21.561H43.1193V25.9271H47.4851V21.561Z" fill="#213149"></path><path d="M58.2658 21.561H53.9V25.9271H58.2658V21.561Z" fill="#213149"></path><path d="M52.8762 21.561H48.5104V25.9271H52.8762V21.561Z" fill="#213149"></path><path d="M63.6568 26.9509H59.291V31.317H63.6568V26.9509Z" fill="#213149"></path><path d="M58.2658 26.9509H53.9V31.317H58.2658V26.9509Z" fill="#213149"></path><path d="M52.8762 26.9509H48.5104V31.317H52.8762V26.9509Z" fill="#213149"></path><path d="M42.0986 26.9509H37.7328V31.317H42.0986V26.9509Z" fill="#213149"></path><path d="M36.7061 5.38989H32.3403V9.75596H36.7061V5.38989Z" fill="#213149"></path><path d="M42.0986 10.7812H37.7328V15.1473H42.0986V10.7812Z" fill="#213149"></path><path d="M36.7061 26.9509H32.3403V31.317H36.7061V26.9509Z" fill="#213149"></path><path d="M58.2658 16.1726H53.9V20.5387H58.2658V16.1726Z" fill="#213149"></path><path d="M42.0986 21.561H37.7328V25.9271H42.0986V21.561Z" fill="#213149"></path><path d="M69.0463 32.3423H64.6805V36.7084H69.0463V32.3423Z" fill="#213149"></path><path d="M79.8269 32.3423H75.4611V36.7084H79.8269V32.3423Z" fill="#213149"></path><path d="M74.4359 37.7336H70.0701V42.0997H74.4359V37.7336Z" fill="#213149"></path><path d="M74.4359 43.1235H70.0701V47.4896H74.4359V43.1235Z" fill="#213149"></path><path d="M79.8269 37.7336H75.4611V42.0997H79.8269V37.7336Z" fill="#213149"></path><path d="M69.0463 37.7336H64.6805V42.0997H69.0463V37.7336Z" fill="#213149"></path><path d="M85.2165 32.3423H80.8506V36.7084H85.2165V32.3423Z" fill="#213149"></path><path d="M90.606 37.7336H86.2402V42.0997H90.606V37.7336Z" fill="#213149"></path><path d="M90.606 43.1235H86.2402V47.4896H90.606V43.1235Z" fill="#213149"></path><path d="M90.606 48.5149H86.2402V52.881H90.606V48.5149Z" fill="#213149"></path><path d="M79.8269 43.1235H75.4611V47.4896H79.8269V43.1235Z" fill="#213149"></path><path d="M79.8269 48.5149H75.4611V52.881H79.8269V48.5149Z" fill="#213149"></path><path d="M74.4359 48.5149H70.0701V52.881H74.4359V48.5149Z" fill="#213149"></path><path d="M69.0463 48.5149H64.6805V52.881H69.0463V48.5149Z" fill="#213149"></path><path d="M69.0463 53.9048H64.6805V58.2709H69.0463V53.9048Z" fill="#213149"></path><path d="M74.4359 53.9048H70.0701V58.2709H74.4359V53.9048Z" fill="#213149"></path><path d="M85.2165 53.9048H80.8506V58.2709H85.2165V53.9048Z" fill="#213149"></path><path d="M90.606 53.9048H86.2402V58.2709H90.606V53.9048Z" fill="#213149"></path><path d="M90.606 59.2932H86.2402V63.6593H90.606V59.2932Z" fill="#213149"></path><path d="M85.2165 59.2932H80.8506V63.6593H85.2165V59.2932Z" fill="#213149"></path><path d="M79.8269 59.2932H75.4611V63.6593H79.8269V59.2932Z" fill="#213149"></path><path d="M74.4359 59.2932H70.0701V63.6593H74.4359V59.2932Z" fill="#213149"></path><path d="M90.606 32.3423H86.2402V36.7084H90.606V32.3423Z" fill="#213149"></path><path d="M85.2165 43.1235H80.8506V47.4896H85.2165V43.1235Z" fill="#213149"></path><path d="M69.0463 59.2932H64.6805V63.6593H69.0463V59.2932Z" fill="#213149"></path><path d="M9.74492 0.00891113H0.00891113V9.74552H9.74492V0.00891113Z" fill="#213149"></path><path d="M31.3061 0.00891113H21.5701V9.74552H31.3061V0.00891113Z" fill="#213149"></path><path d="M20.5255 10.7887H10.7895V20.5253H20.5255V10.7887Z" fill="#213149"></path><path d="M31.3061 10.7902H21.5701V20.5268H31.3061V10.7902Z" fill="#213149"></path><path d="M9.74492 21.5699H0.00891113V31.3066H9.74492V21.5699Z" fill="#213149"></path><path d="M20.5255 21.5714H10.7895V31.308H20.5255V21.5714Z" fill="#213149"></path><path d="M74.4269 64.6935H64.6909V74.4301H74.4269V64.6935Z" fill="#213149"></path><path d="M95.9881 64.6935H86.2521V74.4301H95.9881V64.6935Z" fill="#213149"></path><path d="M85.206 75.4747H75.47V85.2113H85.206V75.4747Z" fill="#213149"></path><path d="M95.9881 75.4762H86.2521V85.2128H95.9881V75.4762Z" fill="#213149"></path><path d="M74.4269 86.256H64.6909V95.9926H74.4269V86.256Z" fill="#213149"></path><path d="M95.9881 86.2574H86.2521V95.9941H95.9881V86.2574Z" fill="#213149"></path><path d="M82.5232 0H80.8536V1.66964H82.5232V0Z" fill="#213149"></path><path d="M85.2194 0H83.5499V1.66964H85.2194V0Z" fill="#213149"></path><path d="M82.5232 2.69348H80.8536V4.36312H82.5232V2.69348Z" fill="#213149"></path><path d="M82.5232 5.38989H80.8536V7.05954H82.5232V5.38989Z" fill="#213149"></path><path d="M79.8299 0H78.1603V1.66964H79.8299V0Z" fill="#213149"></path><path d="M85.2194 2.69348H83.5499V4.36312H85.2194V2.69348Z" fill="#213149"></path><path d="M79.8299 5.38989H78.1603V7.05954H79.8299V5.38989Z" fill="#213149"></path><path d="M74.4388 0H72.7693V1.66964H74.4388V0Z" fill="#213149"></path><path d="M74.4388 2.69348H72.7693V4.36312H74.4388V2.69348Z" fill="#213149"></path><path d="M74.4388 5.38989H72.7693V7.05954H74.4388V5.38989Z" fill="#213149"></path><path d="M77.1336 0H75.4641V1.66964H77.1336V0Z" fill="#213149"></path><path d="M77.1336 2.69348H75.4641V4.36312H77.1336V2.69348Z" fill="#213149"></path><path d="M69.0493 0H67.3798V1.66964H69.0493V0Z" fill="#213149"></path><path d="M69.0493 2.69348H67.3798V4.36312H69.0493V2.69348Z" fill="#213149"></path><path d="M69.0493 5.38989H67.3798V7.05954H69.0493V5.38989Z" fill="#213149"></path><path d="M66.3545 0H64.685V1.66964H66.3545V0Z" fill="#213149"></path><path d="M66.3545 2.69348H64.685V4.36312H66.3545V2.69348Z" fill="#213149"></path><path d="M66.3545 5.38989H64.685V7.05954H66.3545V5.38989Z" fill="#213149"></path><path d="M69.0493 8.08337H67.3798V9.75302H69.0493V8.08337Z" fill="#213149"></path><path d="M69.0493 10.7798H67.3798V12.4494H69.0493V10.7798Z" fill="#213149"></path><path d="M69.0493 13.4733H67.3798V15.1429H69.0493V13.4733Z" fill="#213149"></path><path d="M66.3545 10.7798H64.685V12.4494H66.3545V10.7798Z" fill="#213149"></path><path d="M66.3545 13.4733H64.685V15.1429H66.3545V13.4733Z" fill="#213149"></path><path d="M66.3545 16.1637H64.685V17.8333H66.3545V16.1637Z" fill="#213149"></path><path d="M71.7441 10.7798H70.0745V12.4494H71.7441V10.7798Z" fill="#213149"></path><path d="M71.7441 13.4733H70.0745V15.1429H71.7441V13.4733Z" fill="#213149"></path><path d="M71.7441 16.1637H70.0745V17.8333H71.7441V16.1637Z" fill="#213149"></path><path d="M79.8299 8.08337H78.1603V9.75302H79.8299V8.08337Z" fill="#213149"></path><path d="M79.8299 13.4733H78.1603V15.1429H79.8299V13.4733Z" fill="#213149"></path><path d="M90.6105 0H88.9409V1.66964H90.6105V0Z" fill="#213149"></path><path d="M71.7441 5.38989H70.0745V7.05954H71.7441V5.38989Z" fill="#213149"></path><path d="M77.1336 8.08337H75.4641V9.75302H77.1336V8.08337Z" fill="#213149"></path><path d="M77.1336 10.7798H75.4641V12.4494H77.1336V10.7798Z" fill="#213149"></path><path d="M77.1336 13.4733H75.4641V15.1429H77.1336V13.4733Z" fill="#213149"></path><path d="M77.1336 16.1637H75.4641V17.8333H77.1336V16.1637Z" fill="#213149"></path><path d="M77.1336 18.863H75.4641V20.5327H77.1336V18.863Z" fill="#213149"></path><path d="M77.1336 21.5551H75.4641V23.2247H77.1336V21.5551Z" fill="#213149"></path><path d="M82.5232 8.08337H80.8536V9.75302H82.5232V8.08337Z" fill="#213149"></path><path d="M74.4388 10.7798H72.7693V12.4494H74.4388V10.7798Z" fill="#213149"></path><path d="M74.4388 16.1637H72.7693V17.8333H74.4388V16.1637Z" fill="#213149"></path><path d="M74.4388 18.863H72.7693V20.5327H74.4388V18.863Z" fill="#213149"></path><path d="M77.1336 24.262H75.4641V25.9316H77.1336V24.262Z" fill="#213149"></path><path d="M77.1336 26.9539H75.4641V28.6235H77.1336V26.9539Z" fill="#213149"></path><path d="M77.1336 29.6443H75.4641V31.3139H77.1336V29.6443Z" fill="#213149"></path><path d="M71.7441 21.5551H70.0745V23.2247H71.7441V21.5551Z" fill="#213149"></path><path d="M71.7441 24.262H70.0745V25.9316H71.7441V24.262Z" fill="#213149"></path><path d="M71.7441 26.9539H70.0745V28.6235H71.7441V26.9539Z" fill="#213149"></path><path d="M74.4388 24.262H72.7693V25.9316H74.4388V24.262Z" fill="#213149"></path><path d="M71.7441 29.6443H70.0745V31.3139H71.7441V29.6443Z" fill="#213149"></path><path d="M69.0493 18.863H67.3798V20.5327H69.0493V18.863Z" fill="#213149"></path><path d="M69.0493 21.5551H67.3798V23.2247H69.0493V21.5551Z" fill="#213149"></path><path d="M69.0493 24.262H67.3798V25.9316H69.0493V24.262Z" fill="#213149"></path><path d="M74.4388 26.9539H72.7693V28.6235H74.4388V26.9539Z" fill="#213149"></path><path d="M69.0493 29.6443H67.3798V31.3139H69.0493V29.6443Z" fill="#213149"></path><path d="M66.3545 21.5551H64.685V23.2247H66.3545V21.5551Z" fill="#213149"></path><path d="M66.3545 26.9539H64.685V28.6235H66.3545V26.9539Z" fill="#213149"></path><path d="M66.3545 29.6443H64.685V31.3139H66.3545V29.6443Z" fill="#213149"></path><path d="M79.8299 16.1637H78.1603V17.8333H79.8299V16.1637Z" fill="#213149"></path><path d="M79.8299 26.9539H78.1603V28.6235H79.8299V26.9539Z" fill="#213149"></path><path d="M79.8299 29.6443H78.1603V31.3139H79.8299V29.6443Z" fill="#213149"></path><path d="M82.5232 10.7798H80.8536V12.4494H82.5232V10.7798Z" fill="#213149"></path><path d="M82.5232 16.1637H80.8536V17.8333H82.5232V16.1637Z" fill="#213149"></path><path d="M82.5232 18.863H80.8536V20.5327H82.5232V18.863Z" fill="#213149"></path><path d="M82.5232 21.5551H80.8536V23.2247H82.5232V21.5551Z" fill="#213149"></path><path d="M82.5232 24.262H80.8536V25.9316H82.5232V24.262Z" fill="#213149"></path><path d="M85.2194 10.7798H83.5499V12.4494H85.2194V10.7798Z" fill="#213149"></path><path d="M85.2194 13.4733H83.5499V15.1429H85.2194V13.4733Z" fill="#213149"></path><path d="M85.2194 16.1637H83.5499V17.8333H85.2194V16.1637Z" fill="#213149"></path><path d="M85.2194 18.863H83.5499V20.5327H85.2194V18.863Z" fill="#213149"></path><path d="M85.2194 21.5551H83.5499V23.2247H85.2194V21.5551Z" fill="#213149"></path><path d="M85.2194 24.262H83.5499V25.9316H85.2194V24.262Z" fill="#213149"></path><path d="M85.2194 26.9539H83.5499V28.6235H85.2194V26.9539Z" fill="#213149"></path><path d="M85.2194 29.6443H83.5499V31.3139H85.2194V29.6443Z" fill="#213149"></path><path d="M85.2194 8.08337H83.5499V9.75302H85.2194V8.08337Z" fill="#213149"></path><path d="M87.9142 0H86.2446V1.66964H87.9142V0Z" fill="#213149"></path><path d="M87.9142 5.38989H86.2446V7.05954H87.9142V5.38989Z" fill="#213149"></path><path d="M87.9142 8.08337H86.2446V9.75302H87.9142V8.08337Z" fill="#213149"></path><path d="M87.9142 13.4733H86.2446V15.1429H87.9142V13.4733Z" fill="#213149"></path><path d="M87.9142 16.1637H86.2446V17.8333H87.9142V16.1637Z" fill="#213149"></path><path d="M87.9142 21.5551H86.2446V23.2247H87.9142V21.5551Z" fill="#213149"></path><path d="M87.9142 24.262H86.2446V25.9316H87.9142V24.262Z" fill="#213149"></path><path d="M87.9142 26.9539H86.2446V28.6235H87.9142V26.9539Z" fill="#213149"></path><path d="M87.9142 29.6443H86.2446V31.3139H87.9142V29.6443Z" fill="#213149"></path><path d="M90.6105 5.38989H88.9409V7.05954H90.6105V5.38989Z" fill="#213149"></path><path d="M90.6105 8.08337H88.9409V9.75302H90.6105V8.08337Z" fill="#213149"></path><path d="M90.6105 10.7798H88.9409V12.4494H90.6105V10.7798Z" fill="#213149"></path><path d="M90.6105 13.4733H88.9409V15.1429H90.6105V13.4733Z" fill="#213149"></path><path d="M90.6105 18.863H88.9409V20.5327H90.6105V18.863Z" fill="#213149"></path><path d="M90.6105 21.5551H88.9409V23.2247H90.6105V21.5551Z" fill="#213149"></path><path d="M90.6105 24.262H88.9409V25.9316H90.6105V24.262Z" fill="#213149"></path><path d="M90.6105 2.69348H88.9409V4.36312H90.6105V2.69348Z" fill="#213149"></path><path d="M93.3038 16.1637H91.6342V17.8333H93.3038V16.1637Z" fill="#213149"></path><path d="M93.3038 18.863H91.6342V20.5327H93.3038V18.863Z" fill="#213149"></path><path d="M93.3038 21.5551H91.6342V23.2247H93.3038V21.5551Z" fill="#213149"></path><path d="M93.3038 24.262H91.6342V25.9316H93.3038V24.262Z" fill="#213149"></path><path d="M93.3038 26.9539H91.6342V28.6235H93.3038V26.9539Z" fill="#213149"></path><path d="M93.3038 29.6443H91.6342V31.3139H93.3038V29.6443Z" fill="#213149"></path><path d="M93.3038 2.69348H91.6342V4.36312H93.3038V2.69348Z" fill="#213149"></path><path d="M85.2194 5.38989H83.5499V7.05954H85.2194V5.38989Z" fill="#213149"></path><path d="M96 5.38989H94.3304V7.05954H96V5.38989Z" fill="#213149"></path><path d="M96 2.69348H94.3304V4.36312H96V2.69348Z" fill="#213149"></path><path d="M93.3038 0H91.6342V1.66964H93.3038V0Z" fill="#213149"></path><path d="M96 0H94.3304V1.66964H96V0Z" fill="#213149"></path><path d="M93.3038 10.7798H91.6342V12.4494H93.3038V10.7798Z" fill="#213149"></path><path d="M96 8.08337H94.3304V9.75302H96V8.08337Z" fill="#213149"></path><path d="M96 18.863H94.3304V20.5327H96V18.863Z" fill="#213149"></path><path d="M96 16.1637H94.3304V17.8333H96V16.1637Z" fill="#213149"></path><path d="M96 24.262H94.3304V25.9316H96V24.262Z" fill="#213149"></path><path d="M96 26.9539H94.3304V28.6235H96V26.9539Z" fill="#213149"></path><path d="M96 29.6443H94.3304V31.3139H96V29.6443Z" fill="#213149"></path><path d="M74.4388 29.6443H72.7693V31.3139H74.4388V29.6443Z" fill="#213149"></path><path d="M82.5232 29.6443H80.8536V31.3139H82.5232V29.6443Z" fill="#213149"></path><path d="M90.6105 29.6443H88.9409V31.3139H90.6105V29.6443Z" fill="#213149"></path><path d="M71.7441 2.69348H70.0745V4.36312H71.7441V2.69348Z" fill="#213149"></path><path d="M77.1336 5.38989H75.4641V7.05954H77.1336V5.38989Z" fill="#213149"></path><path d="M66.3545 8.08337H64.685V9.75302H66.3545V8.08337Z" fill="#213149"></path><path d="M93.3038 8.08337H91.6342V9.75302H93.3038V8.08337Z" fill="#213149"></path><path d="M93.3038 13.4733H91.6342V15.1429H93.3038V13.4733Z" fill="#213149"></path><path d="M96 13.4733H94.3304V15.1429H96V13.4733Z" fill="#213149"></path><path d="M74.4388 13.4733H72.7693V15.1429H74.4388V13.4733Z" fill="#213149"></path><path d="M66.3545 24.262H64.685V25.9316H66.3545V24.262Z" fill="#213149"></path><path d="M69.0493 16.1637H67.3798V17.8333H69.0493V16.1637Z" fill="#213149"></path><path d="M74.4388 21.5551H72.7693V23.2247H74.4388V21.5551Z" fill="#213149"></path><path d="M79.8299 21.5551H78.1603V23.2247H79.8299V21.5551Z" fill="#213149"></path></g><defs><clipPath id="clip0_757_148698"><rect width="96" height="96" fill="white"></rect></clipPath></defs></svg> 