<?xml version="1.0" encoding="UTF-8" standalone="no"?>
<!DOCTYPE svg PUBLIC "-//W3C//DTD SVG 1.1//EN" "http://www.w3.org/Graphics/SVG/1.1/DTD/svg11.dtd">
<svg width="100%" height="100%" viewBox="0 0 542 48" version="1.1" xmlns="http://www.w3.org/2000/svg" xmlns:xlink="http://www.w3.org/1999/xlink" xml:space="preserve" xmlns:serif="http://www.serif.com/" style="fill-rule:evenodd;clip-rule:evenodd;stroke-linejoin:round;stroke-miterlimit:2;">
    <g transform="matrix(1,0,0,1,-12.011,-5.281)">
        <path d="M82.473,31.361L88.302,31.361L88.302,39.382C86.578,39.798 84.815,40.006 83.007,40.006C79.68,40.006 77.157,39.097 75.441,37.278C73.723,35.461 72.866,32.792 72.866,29.274C72.866,25.922 73.757,23.303 75.54,21.413C77.323,19.524 79.8,18.579 82.974,18.579C85.148,18.579 87.412,19.079 89.765,20.077L90.942,17.403C88.541,16.381 85.951,15.87 83.17,15.87C80.425,15.87 78.03,16.408 75.986,17.483C73.941,18.559 72.376,20.115 71.289,22.153C70.201,24.192 69.658,26.565 69.658,29.274C69.658,33.504 70.758,36.794 72.957,39.141C75.154,41.488 78.226,42.661 82.172,42.661C84.049,42.661 85.701,42.548 87.127,42.323C88.554,42.097 89.955,41.764 91.334,41.324L91.334,28.652L82.475,28.652L82.475,31.361L82.473,31.361Z" style="fill:currentColor;fill-rule:nonzero;"/>
    </g>
    <g transform="matrix(1,0,0,1,-12.011,-5.281)">
        <path d="M100.619,16.245L97.59,16.245L97.59,42.307L112.116,42.307L112.116,39.561L100.619,39.561L100.619,16.245Z" style="fill:currentColor;fill-rule:nonzero;"/>
    </g>
    <g transform="matrix(1,0,0,1,-12.011,-5.281)">
        <path d="M127.232,15.836C123.382,15.836 120.411,17.003 118.32,19.338C116.228,21.674 115.183,24.962 115.183,29.204C115.183,33.482 116.226,36.795 118.31,39.142C120.396,41.489 123.358,42.662 127.197,42.662C130.951,42.662 133.885,41.469 135.994,39.08C138.101,36.691 139.158,33.411 139.158,29.24C139.158,25.056 138.105,21.777 136.002,19.4C133.899,17.023 130.976,15.836 127.232,15.836ZM133.738,37.279C132.265,39.097 130.085,40.007 127.197,40.007C124.334,40.007 122.149,39.095 120.646,37.27C119.142,35.447 118.39,32.77 118.39,29.241C118.39,25.759 119.142,23.106 120.646,21.282C122.149,19.458 124.344,18.546 127.232,18.546C130.108,18.546 132.28,19.452 133.748,21.264C135.215,23.076 135.949,25.736 135.949,29.242C135.949,32.781 135.213,35.462 133.738,37.279Z" style="fill:currentColor;fill-rule:nonzero;"/>
    </g>
    <g transform="matrix(1,0,0,1,-12.011,-5.281)">
        <path d="M155.158,28.652L155.158,28.473C156.81,28.175 158.066,27.525 158.928,26.521C159.79,25.517 160.221,24.243 160.221,22.698C160.221,20.465 159.449,18.83 157.905,17.797C156.359,16.762 153.858,16.245 150.399,16.245L143.038,16.245L143.038,42.307L152.128,42.307C154.956,42.307 157.158,41.653 158.733,40.346C160.307,39.038 161.094,37.221 161.094,34.891C161.094,31.409 159.115,29.328 155.158,28.652ZM146.067,18.865L150.523,18.865C152.804,18.865 154.468,19.189 155.515,19.837C156.559,20.484 157.083,21.539 157.083,23.001C157.083,24.594 156.612,25.726 155.674,26.397C154.736,27.069 153.196,27.405 151.058,27.405L146.067,27.405L146.067,18.865ZM156.254,38.5C155.191,39.314 153.608,39.721 151.504,39.721L146.067,39.721L146.067,29.971L151.254,29.971C153.476,29.971 155.131,30.352 156.219,31.113C157.305,31.873 157.85,33.061 157.85,34.677C157.85,36.412 157.318,37.686 156.254,38.5Z" style="fill:currentColor;fill-rule:nonzero;"/>
    </g>
    <g transform="matrix(1,0,0,1,-12.011,-5.281)">
        <path d="M173.411,16.139L163.108,42.307L166.173,42.307L169.382,34.018L179.827,34.018L183.071,42.307L186.209,42.307L175.959,16.139L173.411,16.139ZM170.453,31.29L173.517,23.215C174.005,21.849 174.379,20.594 174.641,19.454C175.057,20.939 175.46,22.193 175.853,23.215L178.883,31.29L170.453,31.29Z" style="fill:currentColor;fill-rule:nonzero;"/>
    </g>
    <g transform="matrix(1,0,0,1,-12.011,-5.281)">
        <path d="M192.824,16.245L189.793,16.245L189.793,42.307L204.32,42.307L204.32,39.561L192.824,39.561L192.824,16.245Z" style="fill:currentColor;fill-rule:nonzero;"/>
    </g>
    <g transform="matrix(1,0,0,1,-12.011,-5.281)">
        <path d="M216.701,16.245L208.519,16.245L208.519,42.307L215.899,42.307C220.509,42.307 224.037,41.165 226.479,38.884C228.92,36.602 230.142,33.317 230.142,29.026C230.142,24.999 228.966,21.86 226.612,19.615C224.259,17.368 220.955,16.245 216.701,16.245ZM216.417,37.742L214.047,37.742L214.047,20.772L216.986,20.772C221.929,20.772 224.402,23.571 224.402,29.168C224.402,34.885 221.74,37.742 216.417,37.742Z" style="fill:currentColor;fill-rule:nonzero;"/>
    </g>
    <g transform="matrix(1,0,0,1,-12.011,-5.281)">
        <path d="M233.611,42.307L248.619,42.307L248.619,37.742L239.137,37.742L239.137,31.022L247.961,31.022L247.961,26.495L239.137,26.495L239.137,20.772L248.619,20.772L248.619,16.245L233.611,16.245L233.611,42.307Z" style="fill:currentColor;fill-rule:nonzero;"/>
    </g>
    <g transform="matrix(1,0,0,1,-12.011,-5.281)">
        <path d="M252.475,20.844L259.551,20.844L259.551,42.307L265.077,42.307L265.077,20.844L272.154,20.844L272.154,16.245L252.475,16.245L252.475,20.844Z" style="fill:currentColor;fill-rule:nonzero;"/>
    </g>
    <g transform="matrix(1,0,0,1,-12.011,-5.281)">
        <path d="M276.164,42.307L291.172,42.307L291.172,37.742L281.69,37.742L281.69,31.022L290.514,31.022L290.514,26.495L281.69,26.495L281.69,20.772L291.172,20.772L291.172,16.245L276.164,16.245L276.164,42.307Z" style="fill:currentColor;fill-rule:nonzero;"/>
    </g>
    <g transform="matrix(1,0,0,1,-12.011,-5.281)">
        <path d="M313.789,28.58C313.789,29.984 313.879,32.377 314.058,35.764L313.932,35.764L302.614,16.245L295.644,16.245L295.644,42.307L300.582,42.307L300.582,30.041C300.582,28.557 300.469,26.073 300.243,22.591L300.402,22.591L311.74,42.307L318.763,42.307L318.763,16.245L313.788,16.245L313.788,28.58L313.789,28.58Z" style="fill:currentColor;fill-rule:nonzero;"/>
    </g>
    <g transform="matrix(1,0,0,1,-12.011,-5.281)">
        <path d="M322.774,20.844L329.852,20.844L329.852,42.307L335.377,42.307L335.377,20.844L342.453,20.844L342.453,16.245L322.774,16.245L322.774,20.844Z" style="fill:currentColor;fill-rule:nonzero;"/>
    </g>
    <g transform="matrix(1,0,0,1,-12.011,-5.281)">
        <rect x="346.465" y="16.245" width="5.525" height="26.062" style="fill:currentColor;"/>
    </g>
    <g transform="matrix(1,0,0,1,-12.011,-5.281)">
        <path d="M367.902,15.836C363.896,15.836 360.822,16.98 358.676,19.267C356.53,21.555 355.458,24.868 355.458,29.205C355.458,33.544 356.527,36.87 358.667,39.187C360.806,41.504 363.872,42.663 367.864,42.663C371.858,42.663 374.923,41.505 377.063,39.187C379.202,36.87 380.271,33.554 380.271,29.241C380.271,24.915 379.209,21.599 377.089,19.295C374.969,16.988 371.906,15.836 367.902,15.836ZM367.865,38.028C365.668,38.028 364.015,37.291 362.91,35.818C361.805,34.343 361.252,32.151 361.252,29.24C361.252,26.329 361.812,24.133 362.928,22.654C364.045,21.174 365.703,20.433 367.903,20.433C372.288,20.433 374.48,23.369 374.48,29.24C374.479,35.098 372.274,38.028 367.865,38.028Z" style="fill:currentColor;fill-rule:nonzero;"/>
    </g>
    <g transform="matrix(1,0,0,1,-12.011,-5.281)">
        <path d="M401.888,28.58C401.888,29.984 401.978,32.377 402.157,35.764L402.031,35.764L390.713,16.245L383.742,16.245L383.742,42.307L388.68,42.307L388.68,30.041C388.68,28.557 388.567,26.073 388.341,22.591L388.502,22.591L399.838,42.307L406.861,42.307L406.861,16.245L401.887,16.245L401.887,28.58L401.888,28.58Z" style="fill:currentColor;fill-rule:nonzero;"/>
    </g>
    <g transform="matrix(1,0,0,1,-12.011,-5.281)">
        <path d="M417.646,16.245L410.89,16.245L410.89,42.307L413.921,42.307L413.921,32.057L416.985,32.057C420.337,32.057 422.913,31.347 424.714,29.927C426.515,28.506 427.414,26.477 427.414,23.84C427.415,18.776 424.159,16.245 417.646,16.245ZM422.479,28.152C421.278,29.02 419.334,29.454 416.649,29.454L413.922,29.454L413.922,18.865L417.308,18.865C419.698,18.865 421.455,19.287 422.584,20.131C423.713,20.975 424.278,22.259 424.278,23.982C424.278,25.895 423.678,27.285 422.479,28.152Z" style="fill:currentColor;fill-rule:nonzero;"/>
    </g>
    <g transform="matrix(1,0,0,1,-12.011,-5.281)">
        <path d="M448.428,23.607C448.428,21.146 447.664,19.304 446.137,18.081C444.611,16.857 442.249,16.245 439.052,16.245L431.905,16.245L431.905,42.307L434.935,42.307L434.935,31.469L440.372,31.469L446.683,42.307L450.265,42.307L443.189,30.594C446.682,29.383 448.428,27.053 448.428,23.607ZM439.088,28.865L434.935,28.865L434.935,18.901L438.873,18.901C441.119,18.901 442.75,19.281 443.768,20.041C444.784,20.803 445.291,22.045 445.291,23.768C445.291,25.467 444.791,26.743 443.793,27.591C442.795,28.441 441.227,28.865 439.088,28.865Z" style="fill:currentColor;fill-rule:nonzero;"/>
    </g>
    <g transform="matrix(1,0,0,1,-12.011,-5.281)">
        <path d="M464.2,15.836C460.35,15.836 457.379,17.003 455.287,19.338C453.195,21.674 452.151,24.962 452.151,29.204C452.151,33.482 453.193,36.795 455.279,39.142C457.365,41.489 460.326,42.662 464.165,42.662C467.92,42.662 470.852,41.469 472.962,39.08C475.07,36.691 476.125,33.411 476.125,29.24C476.125,25.056 475.074,21.777 472.971,19.4C470.868,17.023 467.943,15.836 464.2,15.836ZM470.707,37.279C469.232,39.097 467.053,40.007 464.165,40.007C461.301,40.007 459.117,39.095 457.613,37.27C456.11,35.447 455.359,32.77 455.359,29.241C455.359,25.759 456.11,23.106 457.613,21.282C459.117,19.458 461.312,18.546 464.2,18.546C467.076,18.546 469.248,19.452 470.715,21.264C472.183,23.076 472.918,25.736 472.918,29.242C472.918,32.781 472.18,35.462 470.707,37.279Z" style="fill:currentColor;fill-rule:nonzero;"/>
    </g>
    <g transform="matrix(1,0,0,1,-12.011,-5.281)">
        <path d="M483.672,35.546C483.672,36.889 483.367,37.916 482.754,38.63C482.143,39.343 481.248,39.699 480.07,39.699C479.156,39.699 478.277,39.58 477.433,39.343L477.433,41.928C478.075,42.248 478.954,42.408 480.07,42.408C482.21,42.408 483.849,41.788 484.991,40.546C486.133,39.304 486.703,37.554 486.703,35.296L486.703,16.245L483.672,16.245L483.672,35.546Z" style="fill:currentColor;fill-rule:nonzero;"/>
    </g>
    <g transform="matrix(1,0,0,1,-12.011,-5.281)">
        <path d="M491.688,42.307L506.215,42.307L506.215,39.597L494.718,39.597L494.718,30.007L505.52,30.007L505.52,27.332L494.718,27.332L494.718,18.938L506.215,18.938L506.215,16.245L491.688,16.245L491.688,42.307Z" style="fill:currentColor;fill-rule:nonzero;"/>
    </g>
    <g transform="matrix(1,0,0,1,-12.011,-5.281)">
        <path d="M522.184,18.58C524.157,18.58 526.128,19.044 528.101,19.971L529.384,17.368C527.34,16.371 524.951,15.871 522.219,15.871C519.653,15.871 517.42,16.418 515.526,17.511C513.63,18.605 512.18,20.162 511.176,22.182C510.172,24.202 509.67,26.555 509.67,29.241C509.67,33.531 510.713,36.841 512.798,39.169C514.884,41.499 517.845,42.663 521.684,42.663C524.334,42.663 526.562,42.325 528.369,41.647L528.369,38.99C526.04,39.643 523.966,39.97 522.147,39.97C519.188,39.97 516.91,39.04 515.311,37.181C513.713,35.322 512.915,32.685 512.915,29.275C512.915,25.96 513.743,23.349 515.401,21.441C517.059,19.534 519.318,18.58 522.184,18.58Z" style="fill:currentColor;fill-rule:nonzero;"/>
    </g>
    <g transform="matrix(1,0,0,1,-12.011,-5.281)">
        <path d="M533.689,16.245L533.689,18.938L541.943,18.938L541.943,42.307L544.973,42.307L544.973,18.938L553.227,18.938L553.227,16.245L533.689,16.245Z" style="fill:currentColor;fill-rule:nonzero;"/>
    </g>
    <g transform="matrix(1,0,0,1,-12.011,-5.281)">
        <path d="M35.98,5.281C22.743,5.281 12.011,16.011 12.011,29.249C12.011,42.487 22.743,53.217 35.98,53.217C49.216,53.217 59.947,42.487 59.947,29.249C59.947,16.011 49.217,5.281 35.98,5.281ZM51.172,15.178C50.984,14.975 50.793,14.777 50.597,14.581C50.793,14.776 50.984,14.975 51.172,15.178ZM53.213,17.766C53.042,17.509 52.865,17.257 52.684,17.009C52.865,17.257 53.042,17.509 53.213,17.766ZM52.248,16.437C52.065,16.206 51.877,15.977 51.686,15.754C51.878,15.977 52.064,16.205 52.248,16.437ZM43.229,40.256L43.229,29.789L49.098,29.789L49.098,38.363C47.371,39.133 45.422,39.793 43.229,40.256ZM49.098,39.543L49.098,45.271C47.354,46.702 45.377,47.852 43.229,48.657L43.229,41.352C45.4,40.909 47.358,40.284 49.098,39.543ZM22.861,38.157L22.861,29.789L28.73,29.789L28.73,40.154C26.531,39.656 24.581,38.961 22.861,38.157ZM28.73,41.258L28.73,48.656C26.582,47.851 24.605,46.699 22.861,45.267L22.861,39.35C24.595,40.122 26.551,40.781 28.73,41.258ZM28.73,18.63L28.73,28.71L22.861,28.71L22.861,20.623C24.58,19.82 26.53,19.127 28.73,18.63ZM22.861,19.439L22.861,13.229C24.605,11.797 26.582,10.646 28.73,9.839L28.73,17.527C26.551,18.005 24.596,18.666 22.861,19.439ZM33.045,17.967C34.057,17.877 35.102,17.821 36.199,17.821C37.138,17.821 38.037,17.866 38.914,17.932L38.914,28.71L33.045,28.71L33.045,17.967ZM33.045,29.789L38.914,29.789L38.914,40.855C38.037,40.921 37.139,40.966 36.199,40.966C35.101,40.966 34.056,40.909 33.045,40.82L33.045,29.789ZM43.229,28.71L43.229,18.533C45.422,18.996 47.371,19.658 49.098,20.429L49.098,28.71L43.229,28.71ZM43.229,17.435L43.229,9.842C45.377,10.647 47.354,11.799 49.098,13.231L49.098,19.247C47.357,18.504 45.402,17.878 43.229,17.435ZM50.006,14.015C49.811,13.834 49.611,13.658 49.408,13.485C49.611,13.657 49.811,13.834 50.006,14.015ZM42.916,9.72C42.758,9.664 42.601,9.61 42.441,9.557C42.601,9.609 42.758,9.664 42.916,9.72ZM41.238,9.199C41.083,9.158 40.926,9.123 40.769,9.087C40.926,9.123 41.083,9.158 41.238,9.199ZM39.719,8.865C39.529,8.83 39.338,8.797 39.147,8.767C39.338,8.797 39.528,8.83 39.719,8.865ZM38.914,8.738L38.914,16.847C38.035,16.783 37.137,16.741 36.199,16.741C35.105,16.741 34.058,16.794 33.045,16.88L33.045,8.74C34.006,8.603 34.983,8.517 35.981,8.517C36.978,8.518 37.954,8.602 38.914,8.738ZM28.973,9.744C29.122,9.691 29.272,9.64 29.422,9.59C29.271,9.641 29.122,9.691 28.973,9.744ZM30.548,9.248C30.692,9.21 30.834,9.17 30.978,9.135C30.834,9.17 30.691,9.21 30.548,9.248ZM32.206,8.871C32.392,8.837 32.578,8.805 32.766,8.775C32.578,8.805 32.392,8.837 32.206,8.871ZM22.416,13.604C22.229,13.766 22.042,13.927 21.861,14.096C22.042,13.927 22.229,13.766 22.416,13.604ZM21.229,14.72C21.049,14.903 20.869,15.084 20.696,15.274C20.869,15.084 21.049,14.902 21.229,14.72ZM19.158,17.177C18.99,17.411 18.82,17.645 18.662,17.885C18.82,17.645 18.99,17.411 19.158,17.177ZM20.148,15.906C19.97,16.116 19.793,16.325 19.624,16.543C19.793,16.325 19.971,16.116 20.148,15.906ZM18.547,18.07L18.547,21.826C17.594,22.469 16.738,23.127 15.986,23.773C16.549,21.727 17.427,19.812 18.547,18.07ZM15.576,25.598C16.394,24.807 17.387,23.963 18.547,23.133L18.547,28.71L15.262,28.71C15.289,27.65 15.395,26.611 15.576,25.598ZM15.262,29.789L18.547,29.789L18.547,35.643C17.416,34.833 16.443,34.011 15.637,33.238C15.418,32.117 15.291,30.965 15.262,29.789ZM18.547,36.962L18.547,40.422C17.497,38.789 16.656,37.008 16.096,35.106C16.821,35.721 17.637,36.349 18.547,36.962ZM18.741,40.727C18.902,40.967 19.069,41.204 19.238,41.437C19.068,41.203 18.902,40.967 18.741,40.727ZM20.779,43.312C20.958,43.504 21.14,43.693 21.326,43.879C21.141,43.693 20.958,43.505 20.779,43.312ZM19.705,42.055C19.879,42.274 20.057,42.489 20.237,42.701C20.056,42.488 19.879,42.273 19.705,42.055ZM22.518,44.984C22.323,44.817 22.131,44.648 21.943,44.474C22.131,44.648 22.322,44.817 22.518,44.984ZM29.034,48.775C29.187,48.83 29.34,48.882 29.494,48.933C29.34,48.883 29.188,48.83 29.034,48.775ZM30.682,49.287C30.836,49.328 30.994,49.365 31.15,49.402C30.993,49.365 30.836,49.328 30.682,49.287ZM32.234,49.632C32.422,49.666 32.612,49.699 32.801,49.729C32.611,49.699 32.424,49.666 32.234,49.632ZM33.045,49.759L33.045,41.907C34.058,41.994 35.106,42.046 36.199,42.046C37.137,42.046 38.035,42.004 38.914,41.94L38.914,49.761C37.954,49.898 36.976,49.982 35.98,49.982C34.982,49.981 34.005,49.896 33.045,49.759ZM42.85,48.801C42.692,48.857 42.536,48.912 42.375,48.964C42.535,48.912 42.691,48.856 42.85,48.801ZM41.098,49.338C40.951,49.375 40.799,49.404 40.651,49.44C40.799,49.404 40.95,49.375 41.098,49.338ZM39.689,49.638C39.497,49.673 39.304,49.707 39.11,49.737C39.305,49.707 39.497,49.673 39.689,49.638ZM49.32,45.092C49.529,44.916 49.732,44.733 49.933,44.549C49.731,44.732 49.529,44.916 49.32,45.092ZM50.509,44.009C50.712,43.809 50.908,43.602 51.102,43.393C50.907,43.602 50.712,43.809 50.509,44.009ZM52.602,41.604C52.795,41.345 52.979,41.079 53.16,40.811C52.979,41.078 52.796,41.345 52.602,41.604ZM51.601,42.848C51.803,42.616 51.997,42.377 52.186,42.136C51.995,42.377 51.803,42.615 51.601,42.848ZM53.412,40.43L53.412,37.25C54.254,36.705 55.023,36.146 55.716,35.591C55.16,37.316 54.374,38.934 53.412,40.43ZM56.211,33.762C55.416,34.482 54.48,35.229 53.412,35.96L53.412,29.789L56.698,29.789C56.663,31.15 56.498,32.478 56.211,33.762ZM56.698,28.71L53.412,28.71L53.412,22.835C54.517,23.592 55.481,24.367 56.296,25.11C56.533,26.277 56.666,27.481 56.698,28.71ZM53.412,21.534L53.412,18.074C54.444,19.678 55.274,21.426 55.835,23.291C55.11,22.703 54.303,22.11 53.412,21.534Z" style="fill:currentColor;fill-rule:nonzero;"/>
    </g>
</svg>
