<svg width="90" height="30" viewBox="0 0 90 30" fill="none" xmlns="http://www.w3.org/2000/svg">
  <path d="M8.4375 30H0.9375C0.421875 30 0 29.5781 0 29.0625V0.9375C0 0.421875 0.421875 0 0.9375 0H8.4375C8.95313 0 9.375 0.421875 9.375 0.9375V29.0625C9.375 29.5781 8.95313 30 8.4375 30Z" fill="currentColor"/>
  <path d="M15.4688 30H22.9688C23.4844 30 23.9062 29.5781 23.9062 29.0625V0.9375C23.9062 0.421875 23.4844 0 22.9688 0H15.4688C14.9531 0 14.5312 0.421875 14.5312 0.9375V29.0625C14.5312 29.5781 14.9531 30 15.4688 30Z" fill="currentColor"/>
  <path d="M35.1562 30H42.6562C43.1719 30 43.5938 29.5781 43.5938 29.0625V0.9375C43.5938 0.421875 43.1719 0 42.6562 0H35.1562C34.6406 0 34.2188 0.421875 34.2188 0.9375V29.0625C34.2188 29.5781 34.6406 30 35.1562 30Z" fill="currentColor"/>
  <path d="M57.1875 30H49.6875C49.1719 30 48.75 29.5781 48.75 29.0625V0.9375C48.75 0.421875 49.1719 0 49.6875 0H57.1875C57.7031 0 58.125 0.421875 58.125 0.9375V29.0625C58.125 29.5781 57.7031 30 57.1875 30Z" fill="currentColor"/>
  <path d="M90 7.54688V0.890625C90 0.375 89.625 0 89.1094 0H62.7656C62.25 0 61.875 0.421875 61.875 0.890625V7.54688C61.875 8.0625 62.2969 8.4375 62.7656 8.4375H71.25V29.0626C71.25 29.5782 71.6719 30.0001 72.1875 30.0001H79.6875C80.2032 30.0001 80.625 29.5782 80.625 29.0626V8.4375H89.1094C89.625 8.4375 90 8.01562 90 7.54688Z" fill="currentColor"/>
  <path d="M42.6562 30H32.2031C31.5 30 30.8437 29.5781 30.5156 28.9688L16.3125 0.515625C16.125 0.1875 15.7969 0 15.4688 0H25.9219C26.625 0 27.2813 0.421875 27.6094 1.03125L41.8125 29.4844C42 29.8125 42.3281 30 42.6562 30Z" fill="#E31837"/>
</svg>
