<svg width="203" height="202" viewBox="0 0 203 202" fill="none" xmlns="http://www.w3.org/2000/svg">
<path d="M182.102 116.504C180.414 115.184 177.867 114.891 175.714 114.129C170.66 112.35 152.76 106.065 139.003 101.97C146.079 99.4771 153.073 96.7892 158.956 91.8142C168.123 83.9948 177.634 77.7295 190.895 77.6611C196.273 77.6611 205.905 75.8724 202.155 66.9094C199.012 59.4126 192.543 62.9118 186.044 65.2772C166.466 72.4026 147.261 80.4076 128.431 89.0578C134.425 84.679 141.743 78.6483 141.46 78.5505C141.611 78.1596 141.652 77.6415 141.945 77.3874C143.39 76.1168 144.977 74.9536 146.372 73.6928C146.938 73.204 147.605 72.7153 148.191 72.2364C148.494 71.8943 148.798 71.562 149.121 71.259L149.374 71.0146C149.498 70.8307 149.594 70.6297 149.657 70.4184C150.099 69.1322 150.988 68.0339 152.174 67.3102C155.004 65.3065 157.844 63.3125 160.795 61.4457C163.403 59.8329 166.213 58.5134 168.821 56.93C170.357 55.9526 172.459 54.9751 172.934 53.5677C173.541 51.7887 174.764 50.8797 175.845 49.658C176.532 48.8309 177.173 47.9696 177.766 47.0776L177.382 46.6866L173.955 48.7587C173.955 48.2114 173.874 47.9573 173.955 47.7813C175.319 45.368 177.317 43.3452 179.747 41.9168C180.131 41.7018 180.262 41.0567 180.636 40.3822H178.231L180.384 35.1433L177.624 36.4041L177.23 36.0425C177.816 34.7034 179.251 33.0222 179.706 31.7516C179.758 31.6152 179.768 31.4674 179.735 31.3256C179.703 31.1839 179.629 31.054 179.523 30.9514C179.417 30.8487 179.283 30.7775 179.136 30.7461C178.989 30.7147 178.837 30.7244 178.696 30.7742L176.674 31.4291C176.88 30.4857 177.008 29.5281 177.058 28.5652C177.058 27.969 177.129 26.6104 176.543 26.7863C175.411 27.148 176.169 28.6043 175.411 29.484C172.651 29.6111 170.68 30.2268 168.831 32.1817C169.013 31.8396 169.569 30.7155 169.68 30.5005C168.533 30.6199 167.421 30.9517 166.405 31.4779C164.757 32.4553 163.373 33.7162 161.776 34.8207C159.522 36.4139 157.258 38.0169 154.933 39.5319C152.032 41.4379 148.929 43.0701 146.18 45.1618C143.077 47.537 140.287 50.2933 137.346 52.8639C136.456 53.6458 135.486 54.3594 134.597 55.1315C131.079 58.1811 127.592 61.2502 124.075 64.29C123.974 64.3877 120.294 67.4568 116.777 70.3793C116.272 69.8124 115.099 69.7147 115.544 68.2192C115.696 67.7012 114.745 66.7531 114.119 66.1764C113.657 65.8125 113.139 65.5221 112.583 65.3163C112.209 63.8208 111.936 62.6968 111.572 61.172C111.966 60.5367 112.583 59.4811 113.3 58.4548C113.495 58.1643 113.741 57.9095 114.028 57.7021C114.806 58.2495 115.12 57.7021 115.625 57.2428C116.303 56.668 117.033 56.1543 117.808 55.7082C117.343 54.2518 116.919 52.8835 116.433 51.3782L119.86 50.5865C119.86 50.4106 119.86 50.2346 119.86 50.0587L111.845 49.6384C111.612 48.8174 111.39 47.9963 111.137 47.058L116.959 47.5956L115.332 44.0867C114.756 44.4776 114.321 44.7709 113.694 45.2302C113.432 43.6273 113.199 42.2198 112.987 40.8709C115.352 39.092 115.352 39.0041 113.189 37.7236C113.937 35.7688 114.847 33.814 113.361 31.5659C115.524 31.4682 116.12 29.2983 118.121 29.1712C118.364 29.1255 118.59 29.0218 118.781 28.8695C118.971 28.7172 119.118 28.5213 119.21 28.2995C119.301 28.0778 119.334 27.8374 119.304 27.6003C119.275 27.3633 119.184 27.1372 119.041 26.9427L117.808 27.2457C117.464 26.5126 117.212 25.9555 116.979 25.4472L120.264 22.9255C120.264 21.4203 119.506 19.9932 120.264 18.3218C120.658 17.4617 120.102 16.1813 119.941 15.0963C119.792 14.6087 119.796 14.0893 119.953 13.6039C120.109 13.1184 120.411 12.6888 120.82 12.3693C121.942 11.6167 121.831 10.7957 121.346 9.74007C121.012 9.01678 120.497 7.70704 120.78 7.47246C122.67 5.91836 121.164 4.06126 121.73 2.27258C120.005 1.68503 118.234 1.23394 116.433 0.923738C112.016 0.483898 107.579 0.249314 103.152 0.00495916C101.707 -0.0732345 101.05 0.777124 100.979 2.28235C100.908 3.78758 100.787 5.56649 100.575 7.16946C100.251 9.63256 99.7459 12.0566 99.4629 14.5392C98.25 25.1149 97.0979 35.7102 95.885 46.2859C95.2987 51.388 94.6417 56.4901 93.9848 61.5825C93.54 64.9253 92.974 68.2583 92.5596 71.6206V71.7086C83.4628 62.2178 75.4577 53.724 72.3446 49.9219C65.6332 41.6236 58.9522 33.2568 51.038 25.9359C48.2686 23.3751 45.772 20.5113 42.2546 18.273C42.1636 21.2052 39.5155 22.6616 38.9899 25.0563C38.1516 29.1869 36.1309 33.007 33.1578 36.0816C31.0757 38.2319 31.2273 39.9913 33.5116 42.0536C42.204 49.7948 49.4107 58.8164 57.0722 67.4666C58.6388 69.2357 65.6838 76.6446 73.8708 85.1872C68.2814 84.3173 62.7526 83.379 57.1631 82.255C47.7025 80.3001 38.4542 77.3679 29.1857 74.6995C27.8515 74.3183 25.8299 72.4808 26.0018 71.7086C26.4566 69.6658 27.4168 67.7989 24.991 66.5771C23.111 65.6681 20.948 64.7103 18.9265 64.7982C14.4695 65.1139 10.035 65.6785 5.64528 66.4892C2.38056 67.0072 0.338836 68.9229 0.0760415 72.2071C-0.196861 75.6671 0.0760417 78.922 4.11904 80.4956C6.97946 81.5806 9.70852 82.9489 12.4982 84.1805C19.1792 87.1127 25.6379 90.6901 32.6121 92.8404C41.1226 95.4795 50.0172 96.9652 58.7602 98.9005C63.7331 99.9952 68.6857 101.227 73.6687 102.253C63.5612 103.602 53.4537 105.283 43.4271 107.052C29.499 109.496 16.7635 114.696 4.66488 121.518C2.64338 122.652 -0.0149258 124.323 0.834103 127.187C1.68313 130.051 4.73559 129.787 7.15128 129.445C10.467 128.937 13.7504 128.248 16.9859 127.383C35.9172 122.495 55.1518 119.563 74.5278 117.393C72.8803 119.192 71.2631 121.019 69.6762 122.857C67.0988 125.789 64.6225 128.839 62.0249 131.82C61.6004 132.318 61.0142 132.709 60.6604 133.237C58.5378 136.238 56.4557 139.268 54.323 142.269C52.3924 144.996 50.4517 147.713 48.4404 150.371C48.0462 150.889 47.0455 151.026 46.7726 151.554C45.3373 154.262 44.0638 157.057 42.7296 159.804C41.7188 161.934 40.3544 163.967 39.5155 166.176C38.4813 168.717 37.7489 171.363 37.3322 174.064C36.8875 177.602 39.6974 179.205 42.386 180.906C43.3017 181.524 44.4033 181.832 45.5188 181.78C46.6342 181.729 47.7006 181.322 48.5515 180.623C52.1132 178.097 55.4656 175.306 58.5782 172.275C61.8025 169.177 64.1879 165.326 67.1999 162.081C70.6365 158.386 72.2536 153.822 74.9725 149.795C76.4179 147.635 77.7117 145.367 79.1773 143.217C81.0573 140.47 83.1191 137.841 84.9486 135.065C86.677 132.446 88.2134 129.719 89.8104 127.021C90.9828 125.066 92.0845 123.013 93.2772 121.039C94.1503 119.5 95.1051 118.006 96.1377 116.562C96.1377 117.1 96.0568 117.638 96.0063 118.165C94.5407 135.485 92.8021 152.786 91.6701 170.135C91.2052 177.26 91.8116 184.493 92.4079 191.638C92.7264 194.303 93.7193 196.851 95.2987 199.057C97.3202 201.891 101.788 202.097 104.395 199.907C106.852 197.874 106.164 195.89 104.284 193.74C100.625 189.586 101.919 184.581 102.536 179.978C104.709 163.616 107.044 147.273 109.389 130.931C109.469 131.057 109.568 131.172 109.682 131.273C110.986 132.387 110.763 135.28 113.725 134.498C114.473 136.453 116.221 137.362 118.081 138.134C118.169 138.177 118.247 138.237 118.311 138.31C118.374 138.383 118.422 138.468 118.451 138.559C118.48 138.65 118.49 138.746 118.481 138.841C118.471 138.936 118.442 139.028 118.394 139.112C117.384 140.734 118.95 141.154 119.678 142.142C121.194 144.175 123.721 144.096 125.571 145.377C125.515 145.598 125.515 145.83 125.571 146.051C124.893 146.423 123.822 146.843 124.823 147.684C126.137 148.778 127.218 150.147 129.048 150.714C131.665 151.544 132.898 153.939 134.455 155.904C134.96 156.539 134.859 157.966 134.354 158.074C131.676 158.66 133.606 159.931 134.101 160.341C135.506 161.514 137.134 162.345 137.599 164.378C137.76 165.091 138.963 165.091 139.751 165.277C140.54 165.463 141.399 164.945 142.127 165.521C142.632 165.932 143.309 166.43 142.248 166.919C141.733 167.154 140.752 166.919 141.561 167.897C142.369 168.874 142.854 170.311 144.664 169.93C145.341 169.783 146.392 169.93 146.352 170.594C146.2 172.901 149.252 172.129 149.141 172.764C148.707 175.305 150.708 174.553 151.8 175.227C152.891 175.902 153.639 177.446 155.095 177.984C155.287 178.58 155.772 178.814 156.267 178.531C156.762 178.248 156.439 177.984 156.014 177.886C156.004 177.64 156.025 177.394 156.075 177.153C157.53 176.723 157.945 177.749 158.4 178.707C157.904 179.342 156.54 179.02 156.59 180.144C156.59 180.593 157.237 180.828 157.773 180.847C158.531 180.975 159.623 181.629 159.956 180.847C160.29 180.066 159.158 180.241 158.612 180.105C158.935 179.723 159.532 179.469 159.36 178.814C159.421 176.566 158.076 176.029 156.075 176.263C155.832 173.693 152.81 173.409 151.85 171.435C152.507 170.751 152.628 169.656 153.609 169.216C156.358 171.366 158.845 174.103 162.989 173.468C161.978 172.715 161.22 171.845 161.715 170.536C161.927 169.969 162.584 169.343 161.584 168.962C159.653 168.239 160.704 166.45 160.088 165.267C160.239 163.625 160.361 162.003 158.491 161.094C158.53 160.838 158.492 160.576 158.38 160.341C158.38 158.64 157.288 158.67 156.035 158.914C156.099 158.594 156.047 158.262 155.887 157.975C155.726 157.688 155.468 157.464 155.155 157.34C154.962 157.18 154.713 157.096 154.458 157.106C154.503 156.999 154.504 156.88 154.461 156.773C154.417 156.665 154.333 156.578 154.225 156.529V156.529C154.225 155.865 155.57 154.78 153.68 154.721C152.669 154.721 152.831 153.392 151.87 153.489C149.765 151.487 147.865 149.29 146.2 146.931C144.785 144.976 143.542 144.145 141.278 144.448C141.278 143.94 141.187 143.471 141.136 142.914C141.085 142.538 140.903 142.189 140.62 141.927C140.337 141.664 139.97 141.502 139.58 141.467L137.932 140.392L138.943 139.708C139.398 139.708 140.237 140.05 140.227 139.483C140.227 138.613 139.337 139.151 138.822 139.121C138.822 138.838 138.822 138.564 138.822 138.291C139.832 136.385 139.832 136.336 137.225 135.202L135.718 134.791L135.496 133.452L133.889 131.986L134.02 131.908C134.094 131.684 134.211 131.475 134.364 131.292L134.02 131.908C134.134 131.898 134.243 131.861 134.338 131.8C134.433 131.74 134.511 131.658 134.566 131.562C134.621 131.465 134.65 131.357 134.652 131.247C134.654 131.137 134.628 131.029 134.576 130.931V130.931L133.171 129.445C133.091 129.201 133 128.956 132.909 128.712C133 128.492 133 128.247 132.909 128.028C132.953 127.826 132.92 127.616 132.816 127.436C132.712 127.256 132.543 127.119 132.343 127.05C131.332 126.073 130.867 124.392 128.926 124.734L128.775 123.952C128.562 123.05 128.109 122.218 127.461 121.538V121.538C127.178 121.215 126.895 120.892 126.602 120.56C126.562 119.776 126.248 119.028 125.712 118.439L125.52 118.292H125.662V118.449C125.016 116.693 124.239 114.984 123.337 113.337C128.775 114.744 133.596 115.859 133.545 115.741C158.642 122.583 179.13 136.414 201.72 146.432C202.044 144.424 201.835 142.37 201.114 140.46C196.79 131.153 190.28 122.95 182.102 116.504V116.504ZM113.239 51.7203L114.968 52.4925L113.543 53.4699C113.32 53.3331 113.058 53.2451 113.058 53.1669C113.093 52.682 113.153 52.1992 113.239 51.7203V51.7203ZM117.606 22.5541L115.099 25.4863L114.089 21.8797L117.606 22.5541ZM64.7943 148.817C63.5322 150.67 62.1194 152.421 60.5693 154.056C60.3012 154.267 59.9865 154.414 59.6496 154.486V154.604L59.5284 154.672C58.4081 157.865 56.512 160.751 53.9995 163.088C53.9995 162.11 53.8479 161.583 53.9995 161.231C55.3337 158.66 56.7387 156.119 59.498 154.672C59.5023 154.623 59.5023 154.574 59.498 154.526H59.6193C60.0889 153.08 60.6735 151.671 61.3679 150.313C62.6111 148.172 64.107 146.159 65.4917 144.096L66.1386 144.302C65.7343 145.826 65.5928 147.488 64.7943 148.817V148.817ZM109.267 69.9981L110.51 71.5424C112.956 70.2229 113.017 70.2034 114.281 72.5883L113.27 73.38C112.097 73.4386 111.087 71.474 109.894 72.5785L108.883 70.2425C108.992 70.1535 109.107 70.0718 109.227 69.9981H109.267Z" fill="#424FAA"/>
</svg>
