<svg width="136" height="49" viewBox="0 0 136 49" fill="none" xmlns="http://www.w3.org/2000/svg">
<mask id="mask0_2568_1465" style="mask-type:alpha" maskUnits="userSpaceOnUse" x="0" y="0" width="136" height="49">
<path d="M75.063 41.8862C80.1194 41.8862 81.6459 41.1216 84.4126 37.6806C84.4126 39.6866 86.0357 41.3127 88.0379 41.3127H91.6632V10.8221H84.0309V27.8357C84.0309 32.8059 81.4551 35.6734 77.4481 35.6734C73.7274 35.6734 72.2963 33.5706 72.2963 29.4606V10.8221H64.6641V30.9899C64.7595 38.3497 68.194 41.8862 75.063 41.8862Z" fill="white"/>
<path d="M122.185 10.2502L117.263 10.25L114.766 16.4511C114.766 16.4511 128.096 14.9931 128.096 19.9635V20.6325C128 22.0663 127.046 22.8309 124.184 23.0221L118.937 23.5956C111.305 24.1691 108.443 27.8968 108.443 32.5803C108.443 38.2196 112.259 41.8517 119.414 41.8517C124.375 41.8517 126.474 41.2783 128.096 38.2196C128.191 38.1241 128.287 37.9329 128.382 37.7417C128.382 39.6949 129.962 41.2783 131.912 41.2783H135.633V21.3016C135.728 15.0888 131.534 10.3457 122.185 10.2502ZM128.096 28.4703C128.096 32.867 125.424 36.4992 120.75 36.4992C116.838 36.4992 115.121 34.6831 115.121 31.9112C115.121 29.7128 116.647 28.0879 120.463 27.8012L124.089 27.5144C126.188 27.3233 127.523 26.941 128.096 26.3675V28.4703Z" fill="white"/>
<path d="M113.606 10.2502H111.758C107.56 10.2502 104.464 12.4424 103.224 15.8834V10.8175H95.9736V37.1654C95.9736 39.4534 97.8249 41.3082 100.109 41.3082H103.606V24.8681C103.606 18.46 106.564 16.4569 111.118 16.4569L113.606 10.2502Z" fill="white"/>
<path d="M11.886 48.0591L20.5884 23.6045C13.2657 24.5614 6.57975 27.6448 0.955078 32.3231C2.33471 38.8089 6.3675 44.3378 11.886 48.0591Z" fill="white"/>
<path d="M39.7967 48.0591C45.4214 44.5504 49.4542 38.9152 50.9399 32.3231C45.3153 27.4322 38.6293 24.3488 31.3066 23.6045L39.7967 48.0591Z" fill="white"/>
<path d="M51.7894 27.3254V26.1559C51.7894 11.5894 40.2217 0 26.0008 0C11.78 0 0 11.5894 0 26.1559V27.3254C7.53494 21.6902 16.5556 18.6068 26.0008 18.6068C35.2338 18.6068 44.2545 21.6902 51.7894 27.3254Z" fill="white"/>
</mask>
<g mask="url(#mask0_2568_1465)">
<rect x="-91.1445" y="-56.9668" width="302.439" height="201.557" fill="url(#paint0_linear_2568_1465)"/>
</g>
<defs>
<linearGradient id="paint0_linear_2568_1465" x1="-89.24" y1="-58.1828" x2="-26.2796" y2="203.268" gradientUnits="userSpaceOnUse">
<stop stop-color="#E79B1D"/>
<stop offset="0.322111" stop-color="#A2F195"/>
<stop offset="0.605771" stop-color="#1999DA"/>
<stop offset="1" stop-color="#ED5E79"/>
</linearGradient>
</defs>
</svg>
